{
	"asset":{
		"generator":"Khronos glTF Blender I/O v3.5.30",
		"version":"2.0"
	},
	"extensionsUsed":[
		"KHR_materials_clearcoat",
		"KHR_materials_specular",
		"KHR_materials_ior"
	],
	"scene":0,
	"scenes":[
		{
			"name":"Scene",
			"nodes":[
				0
			]
		}
	],
	"nodes":[
		{
			"mesh":0,
			"name":"Cylinder"
		}
	],
	"materials":[
		{
			"doubleSided":true,
			"extensions":{
				"KHR_materials_clearcoat":{
					"clearcoatFactor":1,
					"clearcoatRoughnessFactor":0.17272727191448212
				},
				"KHR_materials_specular":{
					"specularColorFactor":[
						0.04128394942878861,
						0.04128394942878861,
						0.04128394942878861
					]
				},
				"KHR_materials_ior":{
					"ior":0.09999999403953552
				}
			},
			"name":"wood",
			"pbrMetallicRoughness":{
				"metallicFactor":0.4227272868156433,
				"roughnessFactor":0.145454540848732
			}
		},
		{
			"extensions":{
				"KHR_materials_specular":{
					"specularColorFactor":[
						0.0762357297123935,
						0.0762357297123935,
						0.0762357297123935
					]
				},
				"KHR_materials_ior":{
					"ior":3.1000027656555176
				}
			},
			"name":"Grip",
			"pbrMetallicRoughness":{
				"metallicFactor":0
			}
		}
	],
	"meshes":[
		{
			"name":"Cylinder",
			"primitives":[
				{
					"attributes":{
						"POSITION":0,
						"TEXCOORD_0":1,
						"NORMAL":2
					},
					"indices":3,
					"material":0
				},
				{
					"attributes":{
						"POSITION":4,
						"TEXCOORD_0":5,
						"NORMAL":6
					},
					"indices":7,
					"material":1
				}
			]
		}
	],
	"accessors":[
		{
			"bufferView":0,
			"componentType":5126,
			"count":338,
			"max":[
				0.4006345570087433,
				0.9628482460975647,
				0.9628482460975647
			],
			"min":[
				-21.258880615234375,
				-0.9628482460975647,
				-0.9628482460975647
			],
			"type":"VEC3"
		},
		{
			"bufferView":1,
			"componentType":5126,
			"count":338,
			"type":"VEC2"
		},
		{
			"bufferView":2,
			"componentType":5126,
			"count":338,
			"type":"VEC3"
		},
		{
			"bufferView":3,
			"componentType":5123,
			"count":1812,
			"type":"SCALAR"
		},
		{
			"bufferView":4,
			"componentType":5126,
			"count":67,
			"max":[
				-14.446864128112793,
				0.5306363701820374,
				0.5306370854377747
			],
			"min":[
				-20.68035888671875,
				-0.5306379795074463,
				-0.5306370854377747
			],
			"type":"VEC3"
		},
		{
			"bufferView":5,
			"componentType":5126,
			"count":67,
			"type":"VEC2"
		},
		{
			"bufferView":6,
			"componentType":5126,
			"count":67,
			"type":"VEC3"
		},
		{
			"bufferView":7,
			"componentType":5123,
			"count":288,
			"type":"SCALAR"
		}
	],
	"bufferViews":[
		{
			"buffer":0,
			"byteLength":4056,
			"byteOffset":0,
			"target":34962
		},
		{
			"buffer":0,
			"byteLength":2704,
			"byteOffset":4056,
			"target":34962
		},
		{
			"buffer":0,
			"byteLength":4056,
			"byteOffset":6760,
			"target":34962
		},
		{
			"buffer":0,
			"byteLength":3624,
			"byteOffset":10816,
			"target":34963
		},
		{
			"buffer":0,
			"byteLength":804,
			"byteOffset":14440,
			"target":34962
		},
		{
			"buffer":0,
			"byteLength":536,
			"byteOffset":15244,
			"target":34962
		},
		{
			"buffer":0,
			"byteLength":804,
			"byteOffset":15780,
			"target":34962
		},
		{
			"buffer":0,
			"byteLength":576,
			"byteOffset":16584,
			"target":34963
		}
	],
	"buffers":[
		{
			"byteLength":17160,
			"uri":"data:application/octet-stream;base64,"
		}
	]
}
