{
	"asset":{
		"generator":"Khronos glTF Blender I/O v3.5.30",
		"version":"2.0"
	},
	"extensionsUsed":[
		"KHR_materials_specular"
	],
	"scene":0,
	"scenes":[
		{
			"name":"Scene",
			"nodes":[
				0
			]
		}
	],
	"nodes":[
		{
			"mesh":0,
			"name":"baseball",
			"rotation":[
				0.7071068286895752,
				0,
				0,
				0.7071068286895752
			],
			"scale":[
				0.5,
				0.5,
				0.5
			]
		}
	],
	"materials":[
		{
			"doubleSided":true,
			"extensions":{
				"KHR_materials_specular":{
					"specularColorFactor":[
						0,
						0,
						0
					]
				}
			},
			"name":"10483_baseball_mat",
			"pbrMetallicRoughness":{
				"metallicFactor":0,
				"roughnessFactor":0.8999999761581421
			}
		}
	],
	"meshes":[
		{
			"name":"baseball",
			"primitives":[
				{
					"attributes":{
						"POSITION":0,
						"TEXCOORD_0":1,
						"NORMAL":2
					},
					"indices":3,
					"material":0
				}
			]
		}
	],
	"accessors":[
		{
			"bufferView":0,
			"componentType":5126,
			"count":1633,
			"max":[
				4.513700008392334,
				9.188899993896484,
				4.513299942016602
			],
			"min":[
				-4.512800216674805,
				0.1624000072479248,
				-4.513299942016602
			],
			"type":"VEC3"
		},
		{
			"bufferView":1,
			"componentType":5126,
			"count":1633,
			"type":"VEC2"
		},
		{
			"bufferView":2,
			"componentType":5126,
			"count":1633,
			"type":"VEC3"
		},
		{
			"bufferView":3,
			"componentType":5123,
			"count":9216,
			"type":"SCALAR"
		}
	],
	"bufferViews":[
		{
			"buffer":0,
			"byteLength":19596,
			"byteOffset":0,
			"target":34962
		},
		{
			"buffer":0,
			"byteLength":13064,
			"byteOffset":19596,
			"target":34962
		},
		{
			"buffer":0,
			"byteLength":19596,
			"byteOffset":32660,
			"target":34962
		},
		{
			"buffer":0,
			"byteLength":18432,
			"byteOffset":52256,
			"target":34963
		}
	],
	"buffers":[
		{
			"byteLength":70688,
			"uri":"data:application/octet-stream;base64,"
		}
	]
}
