<svg width="43" height="31" viewBox="0 0 43 31" fill="none" xmlns="http://www.w3.org/2000/svg">
<path fill-rule="evenodd" clip-rule="evenodd" d="M0 2.67241C0 1.19648 1.17389 0 2.62195 0H40.378C41.8261 0 43 1.19648 43 2.67241C43 4.14835 41.8261 5.34483 40.378 5.34483H2.62195C1.17389 5.34483 0 4.14835 0 2.67241Z" fill="#C4C4C4"/>
<path fill-rule="evenodd" clip-rule="evenodd" d="M0 15.5C0 14.0241 1.17389 12.8276 2.62195 12.8276H40.378C41.8261 12.8276 43 14.0241 43 15.5C43 16.9759 41.8261 18.1724 40.378 18.1724H2.62195C1.17389 18.1724 0 16.9759 0 15.5Z" fill="#C4C4C4"/>
<path fill-rule="evenodd" clip-rule="evenodd" d="M0 28.3276C0 26.8516 1.17389 25.6552 2.62195 25.6552H40.378C41.8261 25.6552 43 26.8516 43 28.3276C43 29.8035 41.8261 31 40.378 31H2.62195C1.17389 31 0 29.8035 0 28.3276Z" fill="#C4C4C4"/>
</svg>
