<svg width="20" height="18" viewBox="0 0 20 18" fill="none" xmlns="http://www.w3.org/2000/svg">
<path d="M1.3633 13.2002L5.6623 17.4992C5.75501 17.5922 5.8652 17.666 5.98654 17.7163C6.10788 17.7666 6.23796 17.7923 6.3693 17.7922H17.3703C17.9226 17.7922 18.3703 17.3444 18.3703 16.7922C18.3703 16.2399 17.9226 15.7922 17.3703 15.7922H11.4123L18.6343 8.57016C19.4143 7.79116 19.4143 6.52116 18.6343 5.74216L13.6833 0.792159C13.3079 0.41795 12.7994 0.207825 12.2693 0.207825C11.7392 0.207825 11.2307 0.41795 10.8553 0.792159L6.1053 5.54116L1.3513 10.3842C0.983296 10.7612 0.778291 11.2678 0.780536 11.7946C0.782781 12.3215 0.992096 12.8263 1.3633 13.2002ZM12.1279 2.34758C12.206 2.26948 12.3326 2.26948 12.4107 2.34758L17.0779 7.01474C17.156 7.09284 17.156 7.21948 17.0779 7.29758L14.7747 9.60074C14.6966 9.67884 14.57 9.67884 14.4919 9.60074L9.82473 4.93358C9.74662 4.85548 9.74662 4.72884 9.82473 4.65074L12.1279 2.34758ZM7.5263 6.94816L8.12788 6.34739C8.206 6.26937 8.33256 6.26942 8.41063 6.34749L13.0779 11.0147C13.156 11.0928 13.156 11.2195 13.0779 11.2976L8.6623 15.7132C8.63797 15.7383 8.61494 15.7647 8.5933 15.7922H6.86618C6.81311 15.7922 6.76223 15.7711 6.72472 15.7335L2.91835 11.9253C2.84079 11.8477 2.84022 11.7221 2.91708 11.6438L7.5263 6.94816Z" fill="#CDCDCD"/>
</svg>
