<svg width="24" height="24" viewBox="0 0 24 24" fill="none" xmlns="http://www.w3.org/2000/svg">
<path d="M12.9135 8.19526C13.3616 8.19526 13.7248 8.54768 13.7248 8.98242V11.0815H15.8882C16.3363 11.0815 16.6995 11.434 16.6995 11.8687C16.6995 12.3034 16.3363 12.6558 15.8882 12.6558H13.7248V14.7549C13.7248 15.1897 13.3616 15.5421 12.9135 15.5421C12.4654 15.5421 12.1022 15.1896 12.1022 14.7549V12.6558H9.9387C9.49063 12.6558 9.1274 12.3034 9.1274 11.8687C9.1274 11.434 9.49063 11.0815 9.9387 11.0815H12.1022V8.98242C12.1022 8.54768 12.4654 8.19526 12.9135 8.19526Z" fill="#CDCDCD"/>
<path fill-rule="evenodd" clip-rule="evenodd" d="M4.59781 15.533C4.54691 15.2629 4.46415 14.9988 4.3695 14.7407C2.28541 9.05795 6.62344 3 12.9253 3H13.273C18.0928 3 22 6.79097 22 11.4674C22 16.674 17.6498 20.8947 12.2835 20.8947H2.81145C2.46718 20.8947 2.1604 20.6839 2.04614 20.3688C1.93188 20.0537 2.03502 19.703 2.30345 19.4938L4.15822 17.6342C4.30221 17.4898 4.35182 17.4749 4.4351 17.2888C4.56183 17.0056 4.66521 16.5383 4.66521 16.2281V16.0199C4.66521 15.934 4.65721 15.8483 4.64131 15.7639L4.59781 15.533ZM12.9253 4.57432C7.79293 4.57432 4.24675 9.46734 5.85803 14.1002C5.95924 14.3912 6.05765 14.684 6.12471 14.9847C6.20732 15.3552 6.249 15.7336 6.249 16.1132V16.4624C6.22998 17.0564 6.22998 17.7761 5.68122 18.5875L5.11734 19.3204H12.2835C16.7536 19.3204 20.3774 15.8045 20.3774 11.4674C20.3774 7.66044 17.1966 4.57432 13.273 4.57432H12.9253Z" fill="#CDCDCD"/>
<path d="M13.7248 11.0815H13.5748V11.2315H13.7248V11.0815ZM16.6995 11.8687H16.5495H16.6995ZM13.7248 12.6558V12.5058H13.5748V12.6558H13.7248ZM12.1022 12.6558H12.2522V12.5058H12.1022V12.6558ZM12.1022 11.0815V11.2315H12.2522V11.0815H12.1022ZM12.1022 8.98242H11.9522H12.1022ZM2.04614 20.3688L1.90513 20.42H1.90513L2.04614 20.3688ZM2.30345 19.4938L2.39564 19.6122C2.40057 19.6083 2.40524 19.6042 2.40965 19.5998L2.30345 19.4938ZM6.249 16.4624L6.399 16.4672V16.4624H6.249ZM5.68122 18.5875L5.80033 18.6791L5.80547 18.6715L5.68122 18.5875ZM5.11734 19.3204L4.99846 19.229C4.96361 19.2743 4.95753 19.3354 4.98277 19.3867C5.00801 19.4379 5.0602 19.4704 5.11734 19.4704V19.3204ZM5.85803 14.1002L5.71635 14.1495L5.85803 14.1002ZM4.64131 15.7639L4.4939 15.7917L4.64131 15.7639ZM4.15822 17.6342L4.05202 17.5283L4.15822 17.6342ZM4.59781 15.533L4.4504 15.5608L4.59781 15.533ZM12.9135 8.34526C13.283 8.34526 13.5748 8.63476 13.5748 8.98242H13.8748C13.8748 8.4606 13.4401 8.04526 12.9135 8.04526V8.34526ZM13.5748 8.98242V11.0815H13.8748V8.98242H13.5748ZM13.7248 11.2315H15.8882V10.9315H13.7248V11.2315ZM15.8882 11.2315C16.2578 11.2315 16.5495 11.521 16.5495 11.8687H16.8495C16.8495 11.3469 16.4148 10.9315 15.8882 10.9315V11.2315ZM16.5495 11.8687C16.5495 12.2163 16.2578 12.5058 15.8882 12.5058V12.8058C16.4148 12.8058 16.8495 12.3905 16.8495 11.8687L16.5495 11.8687ZM15.8882 12.5058H13.7248V12.8058H15.8882V12.5058ZM13.5748 12.6558V14.7549H13.8748V12.6558H13.5748ZM13.5748 14.7549C13.5748 15.1026 13.283 15.3921 12.9135 15.3921V15.6921C13.4401 15.6921 13.8748 15.2767 13.8748 14.7549H13.5748ZM12.9135 15.3921C12.544 15.3921 12.2522 15.1026 12.2522 14.7549H11.9522C11.9522 15.2767 12.3869 15.6921 12.9135 15.6921V15.3921ZM12.2522 14.7549V12.6558H11.9522V14.7549H12.2522ZM12.1022 12.5058H9.9387V12.8058H12.1022V12.5058ZM9.9387 12.5058C9.56917 12.5058 9.2774 12.2163 9.2774 11.8687H8.9774C8.9774 12.3905 9.4121 12.8058 9.9387 12.8058V12.5058ZM9.2774 11.8687C9.2774 11.521 9.56917 11.2315 9.9387 11.2315V10.9315C9.4121 10.9315 8.9774 11.3469 8.9774 11.8687H9.2774ZM9.9387 11.2315H12.1022V10.9315H9.9387V11.2315ZM12.2522 11.0815V8.98242H11.9522V11.0815H12.2522ZM12.2522 8.98242C12.2522 8.63476 12.544 8.34526 12.9135 8.34526V8.04526C12.3869 8.04526 11.9522 8.4606 11.9522 8.98242H12.2522ZM12.9253 2.85C6.52525 2.85 2.10662 9.00607 4.22867 14.7924L4.51032 14.6891C2.46421 9.10983 6.72164 3.15 12.9253 3.15V2.85ZM13.273 2.85H12.9253V3.15H13.273V2.85ZM22.15 11.4674C22.15 6.70389 18.1713 2.85 13.273 2.85V3.15C18.0142 3.15 21.85 6.87805 21.85 11.4674H22.15ZM12.2835 21.0447C17.7283 21.0447 22.15 16.761 22.15 11.4674H21.85C21.85 16.5869 17.5712 20.7447 12.2835 20.7447V21.0447ZM2.81145 21.0447H12.2835V20.7447H2.81145V21.0447ZM1.90513 20.42C2.04168 20.7965 2.40637 21.0447 2.81145 21.0447V20.7447C2.528 20.7447 2.27912 20.5713 2.18715 20.3177L1.90513 20.42ZM2.21125 19.3755C1.89264 19.6238 1.76825 20.0425 1.90513 20.42L2.18715 20.3177C2.09551 20.065 2.1774 19.7822 2.39564 19.6122L2.21125 19.3755ZM4.05202 17.5283L2.19724 19.3879L2.40965 19.5998L4.26443 17.7401L4.05202 17.5283ZM5.9997 14.0509C4.42418 9.52089 7.89041 4.72432 12.9253 4.72432V4.42432C7.69545 4.42432 4.06931 9.4138 5.71635 14.1495L5.9997 14.0509ZM5.80547 18.6715C6.38091 17.8207 6.37993 17.0605 6.39892 16.4672L6.09908 16.4576C6.08004 17.0523 6.07906 17.7315 5.55697 18.5034L5.80547 18.6715ZM5.23623 19.4119L5.80011 18.6789L5.56233 18.496L4.99846 19.229L5.23623 19.4119ZM12.2835 19.1704H5.11734V19.4704H12.2835V19.1704ZM20.2274 11.4674C20.2274 15.7174 16.6751 19.1704 12.2835 19.1704V19.4704C16.8322 19.4704 20.5274 15.8916 20.5274 11.4674H20.2274ZM13.273 4.72432C17.1181 4.72432 20.2274 7.74752 20.2274 11.4674H20.5274C20.5274 7.57336 17.2752 4.42432 13.273 4.42432V4.72432ZM12.9253 4.72432H13.273V4.42432H12.9253V4.72432ZM4.4504 15.5608L4.4939 15.7917L4.78871 15.7362L4.74521 15.5053L4.4504 15.5608ZM4.51521 16.0199V16.2281H4.81521V16.0199H4.51521ZM6.399 16.4624V16.1132H6.099V16.4624H6.399ZM5.71635 14.1495C5.81755 14.4404 5.91332 14.7259 5.97831 15.0173L6.27111 14.952C6.20198 14.642 6.10093 14.342 5.9997 14.0509L5.71635 14.1495ZM4.57202 17.3501C4.70699 17.0484 4.81521 16.5604 4.81521 16.2281H4.51521C4.51521 16.5163 4.41667 16.9627 4.29818 17.2275L4.57202 17.3501ZM4.4939 15.7917C4.50808 15.867 4.51521 15.9434 4.51521 16.0199H4.81521C4.81521 15.9247 4.80634 15.8297 4.78871 15.7362L4.4939 15.7917ZM6.399 16.1132C6.399 15.7226 6.35611 15.3332 6.27111 14.952L5.97831 15.0173C6.05852 15.3771 6.099 15.7446 6.099 16.1132H6.399ZM4.26443 17.7401C4.29836 17.7061 4.32657 17.6798 4.3532 17.6548C4.37911 17.6305 4.40558 17.6055 4.43058 17.5779C4.48462 17.5182 4.52574 17.4535 4.57202 17.3501L4.29818 17.2275C4.26119 17.3102 4.23586 17.346 4.20828 17.3764C4.19246 17.3939 4.17433 17.4113 4.14783 17.4361C4.12207 17.4603 4.09008 17.4901 4.05202 17.5283L4.26443 17.7401ZM4.22867 14.7924C4.32181 15.0463 4.40162 15.3019 4.4504 15.5608L4.74521 15.5053C4.69221 15.2239 4.60649 14.9513 4.51032 14.6891L4.22867 14.7924Z" fill="#CDCDCD"/>
</svg>
