<svg width="24" height="24" viewBox="0 0 24 24" fill="none" xmlns="http://www.w3.org/2000/svg">
<path fill-rule="evenodd" clip-rule="evenodd" d="M12 4C12.4658 4 12.8434 4.38006 12.8434 4.84888V19.4011C12.8434 19.8699 12.4658 20.25 12 20.25C11.5342 20.25 11.1566 19.8699 11.1566 19.4011V4.84888C11.1566 4.38006 11.5342 4 12 4ZM4.43704 5.61691C4.45199 5.61691 4.46696 5.61692 4.48194 5.61692H8.57832C9.0441 5.61692 9.42169 5.99697 9.42169 6.4658V17.7842C9.42169 18.253 9.0441 18.6331 8.57832 18.6331H4.48194C4.46696 18.6331 4.45198 18.6331 4.43703 18.6331C4.08983 18.6332 3.75172 18.6332 3.47271 18.5962C3.15895 18.5545 2.79634 18.4528 2.49301 18.1535C2.18737 17.8519 2.08114 17.4873 2.03785 17.1698C1.99985 16.8911 1.99993 16.5543 2.00001 16.2132C2.00001 16.1979 2.00001 16.1826 2.00001 16.1673V8.08271C2.00001 8.06739 2.00001 8.05207 2.00001 8.03676C1.99993 7.69566 1.99985 7.35893 2.03785 7.08023C2.08114 6.76269 2.18737 6.39812 2.49301 6.09651C2.79634 5.79719 3.15895 5.69547 3.47271 5.65381C3.75172 5.61677 4.08983 5.61684 4.43704 5.61691ZM3.70585 7.33539C3.68843 7.48363 3.68676 7.6986 3.68676 8.08271V16.1673C3.68676 16.5514 3.68843 16.7664 3.70585 16.9146C3.86043 16.9337 4.0832 16.9353 4.48194 16.9353H7.73495V7.31468H4.48194C4.08319 7.31468 3.86044 7.31632 3.70585 7.33539ZM20.2941 7.33539C20.1396 7.31632 19.9168 7.31468 19.5181 7.31468H16.2651V16.9353H19.5181C19.9168 16.9353 20.1396 16.9337 20.2941 16.9146C20.3116 16.7664 20.3132 16.5514 20.3132 16.1673V8.08271C20.3132 7.69861 20.3116 7.48363 20.2941 7.33539ZM20.5273 5.65381C20.8411 5.69547 21.2037 5.79719 21.507 6.09651C21.8126 6.39812 21.9189 6.76269 21.9622 7.08023C22.0001 7.35893 22.0001 7.69567 22 8.03677C22 8.05207 22 8.06739 22 8.08271V16.1673C22 16.1826 22 16.1979 22 16.2132C22.0001 16.5543 22.0001 16.8911 21.9622 17.1698C21.9189 17.4873 21.8126 17.8519 21.507 18.1535C21.2037 18.4528 20.8411 18.5545 20.5273 18.5962C20.2483 18.6332 19.9102 18.6332 19.563 18.6331L15.4217 18.6331C14.9559 18.6331 14.5783 18.253 14.5783 17.7842V6.4658C14.5783 5.99697 14.9559 5.61692 15.4217 5.61692L19.563 5.61691C19.9102 5.61684 20.2483 5.61677 20.5273 5.65381Z" fill="#CDCDCD"/>
</svg>
