<svg width="24" height="24" viewBox="0 0 24 24" fill="none" xmlns="http://www.w3.org/2000/svg">
<path d="M8.14035 10.3236C9.36842 10.3236 10.3431 9.34893 10.3431 8.08187C10.3431 6.8538 9.36842 5.87914 8.14035 5.87914C6.87329 5.87914 5.89864 6.8538 5.89864 8.08187C5.89864 9.34893 6.87329 10.3236 8.14035 10.3236ZM21.6686 15.6647L16.0404 10.0192C15.6501 9.62767 15.0161 9.62719 14.6251 10.0181L10.4849 14.1584C10.0944 14.5489 9.4612 14.5489 9.07067 14.1584L7.15322 12.2409C6.76205 11.8498 6.12759 11.8505 5.73734 12.2426L2.33138 15.6647C2.11696 15.8596 2 16.1326 2 16.4444C2 17.0487 2.50682 17.5556 3.11111 17.5556C3.423 17.5556 3.69591 17.4386 3.89084 17.2242L5.73735 15.3918C6.1283 15.0038 6.75938 15.005 7.14885 15.3945L9.07067 17.3163C9.4612 17.7068 10.0944 17.7068 10.4849 17.3163L14.6277 13.1735C15.0176 12.7835 15.6497 12.7829 16.0404 13.1721L20.1092 17.2242C20.3041 17.4386 20.577 17.5556 20.8889 17.5556C21.4932 17.5556 22 17.0487 22 16.4444C22 16.1326 21.883 15.8596 21.6686 15.6647ZM4.22222 4.22222H19.7778V19.7778H4.22222V4.22222ZM2 4.22222V19.7778C2 21.0253 2.97466 22 4.22222 22H19.7778C21.0253 22 22 21.0253 22 19.7778V4.22222C22 2.97466 21.0253 2 19.7778 2H4.22222C2.97466 2 2 2.97466 2 4.22222Z" fill="#CDCDCD"/>
</svg>
