<svg width="20" height="18" viewBox="0 0 20 18" fill="none" xmlns="http://www.w3.org/2000/svg">
<path fill-rule="evenodd" clip-rule="evenodd" d="M2.26751 2.75486C2.26751 2.67598 2.29885 2.60034 2.35462 2.54456C2.41039 2.48879 2.48604 2.45745 2.56492 2.45745H12.6766C12.7555 2.45745 12.8311 2.48879 12.8869 2.54456C12.9427 2.60034 12.974 2.67598 12.974 2.75486V9.29773C12.974 9.3766 12.9427 9.45225 12.8869 9.50803C12.8311 9.5638 12.7555 9.59513 12.6766 9.59513H8.51298C8.27643 9.59534 8.04965 9.68948 7.88249 9.85685L4.64674 13.0926V10.4873C4.64674 10.2507 4.55274 10.0238 4.38542 9.85645C4.21809 9.68913 3.99116 9.59513 3.75453 9.59513H2.56492C2.48604 9.59513 2.41039 9.5638 2.35462 9.50803C2.29885 9.45225 2.26751 9.3766 2.26751 9.29773V2.75486ZM2.56492 0.673035C2.01278 0.673035 1.48326 0.892369 1.09284 1.28279C0.702427 1.6732 0.483093 2.20272 0.483093 2.75486L0.483093 9.29773C0.483093 10.4469 1.41575 11.3796 2.56492 11.3796H2.86232V13.2151C2.86244 13.5578 2.96416 13.8928 3.15462 14.1778C3.34508 14.4627 3.61574 14.6847 3.93237 14.8159C4.24901 14.947 4.59742 14.9813 4.93356 14.9145C5.2697 14.8477 5.57849 14.6827 5.82089 14.4404L8.88295 11.3796H12.6766C13.2288 11.3796 13.7583 11.1602 14.1487 10.7698C14.5391 10.3794 14.7584 9.84986 14.7584 9.29773V2.75486C14.7584 2.20272 14.5391 1.6732 14.1487 1.28279C13.7583 0.892369 13.2288 0.673035 12.6766 0.673035H2.56492ZM17.7325 5.13408C17.7325 5.05521 17.7011 4.97956 17.6454 4.92379C17.5896 4.86801 17.514 4.83668 17.4351 4.83668H16.8403C16.6036 4.83668 16.3767 4.74268 16.2094 4.57536C16.0421 4.40804 15.9481 4.1811 15.9481 3.94447C15.9481 3.70784 16.0421 3.4809 16.2094 3.31358C16.3767 3.14626 16.6036 3.05226 16.8403 3.05226H17.4351C18.5842 3.05226 19.5169 3.98492 19.5169 5.13408V11.677C19.5169 12.2291 19.2976 12.7586 18.9072 13.149C18.5167 13.5394 17.9872 13.7588 17.4351 13.7588H17.1377V15.5944C17.1376 15.9371 17.0358 16.2721 16.8454 16.557C16.6549 16.8419 16.3843 17.064 16.0676 17.1951C15.751 17.3262 15.4026 17.3606 15.0664 17.2937C14.7303 17.2269 14.4215 17.0619 14.1791 16.8197L11.4513 14.0919C11.3637 14.0102 11.2934 13.9117 11.2446 13.8022C11.1958 13.6928 11.1696 13.5747 11.1675 13.4549C11.1654 13.3351 11.1874 13.2161 11.2323 13.105C11.2772 12.9939 11.344 12.893 11.4287 12.8082C11.5134 12.7235 11.6143 12.6567 11.7254 12.6118C11.8365 12.567 11.9555 12.5449 12.0753 12.547C12.1951 12.5492 12.3132 12.5754 12.4227 12.6241C12.5321 12.6729 12.6306 12.7432 12.7123 12.8309L15.3533 15.4718V12.8666C15.3533 12.6299 15.4473 12.403 15.6146 12.2357C15.7819 12.0684 16.0088 11.9744 16.2455 11.9744H17.4351C17.514 11.9744 17.5896 11.943 17.6454 11.8873C17.7011 11.8315 17.7325 11.7558 17.7325 11.677V5.13408Z" fill="#0978AC"/>
</svg>
