<svg width="19" height="19" viewBox="0 0 19 19" fill="none" xmlns="http://www.w3.org/2000/svg">
<path d="M14.3542 12.0833C14.2156 12.0833 14.0832 12.1 13.9515 12.1242L7.50079 5.67353C7.52501 5.54258 7.54167 5.4086 7.54167 5.27083C7.54167 4.01885 6.52282 3 5.27083 3C4.01885 3 3 4.01885 3 5.27083C3 6.25637 3.63508 7.08826 4.51389 7.40163V12.2226C4.07248 12.3783 3.69003 12.6668 3.419 13.0484C3.14797 13.43 3.00161 13.8861 3 14.3542C3 15.6062 4.01885 16.625 5.27083 16.625C5.73888 16.6237 6.19502 16.4774 6.57657 16.2063C6.95812 15.9353 7.24635 15.5526 7.40163 15.1111H12.2226C12.378 15.5526 12.6662 15.9351 13.0478 16.2062C13.4293 16.4773 13.8854 16.6236 14.3534 16.625C15.6054 16.625 16.6242 15.6062 16.6242 14.3542C16.6242 13.1022 15.6062 12.0833 14.3542 12.0833ZM6.02778 12.2226V7.40239C6.27681 7.31307 6.5039 7.18212 6.70449 7.01786L12.6079 12.9213C12.4412 13.1227 12.3111 13.3517 12.2234 13.598H7.40163C7.28919 13.2811 7.10754 12.9932 6.86989 12.7553C6.63225 12.5174 6.34457 12.3354 6.02778 12.2226ZM5.27083 4.51389C5.42076 4.51374 5.56735 4.55807 5.69207 4.64127C5.81679 4.72447 5.91403 4.8428 5.97147 4.98128C6.02891 5.11976 6.04398 5.27217 6.01477 5.41922C5.98556 5.56627 5.91338 5.70135 5.80737 5.80737C5.70135 5.91338 5.56627 5.98556 5.41922 6.01477C5.27217 6.04398 5.11976 6.02891 4.98128 5.97147C4.8428 5.91403 4.72447 5.81679 4.64127 5.69207C4.55807 5.56735 4.51374 5.42076 4.51389 5.27083C4.51389 4.85376 4.853 4.51389 5.27083 4.51389ZM5.27083 15.1111C5.07594 15.1024 4.89191 15.0188 4.75708 14.8778C4.62224 14.7368 4.54699 14.5493 4.54699 14.3542C4.54699 14.1591 4.62224 13.9715 4.75708 13.8305C4.89191 13.6895 5.07594 13.6059 5.27083 13.5972C5.46573 13.6059 5.64976 13.6895 5.78459 13.8305C5.91942 13.9715 5.99467 14.1591 5.99467 14.3542C5.99467 14.5493 5.91942 14.7368 5.78459 14.8778C5.64976 15.0188 5.46573 15.1024 5.27083 15.1111ZM14.3542 15.1111C14.1593 15.1024 13.9752 15.0188 13.8404 14.8778C13.7056 14.7368 13.6303 14.5493 13.6303 14.3542C13.6303 14.1591 13.7056 13.9715 13.8404 13.8305C13.9752 13.6895 14.1593 13.6059 14.3542 13.5972C14.5491 13.6059 14.7331 13.6895 14.8679 13.8305C15.0028 13.9715 15.078 14.1591 15.078 14.3542C15.078 14.5493 15.0028 14.7368 14.8679 14.8778C14.7331 15.0188 14.5491 15.1024 14.3542 15.1111Z" fill="white"/>
</svg>
