<svg width="24" height="24" viewBox="0 0 24 24" fill="none" xmlns="http://www.w3.org/2000/svg">
<path fill-rule="evenodd" clip-rule="evenodd" d="M2 6.24298C2 5.5565 2.54599 5 3.21951 5H20.7805C21.454 5 22 5.5565 22 6.24298C22 6.92946 21.454 7.48597 20.7805 7.48597H3.21951C2.54599 7.48597 2 6.92946 2 6.24298Z" fill="#CDCDCD"/>
<path fill-rule="evenodd" clip-rule="evenodd" d="M2 12.2093C2 11.5228 2.54599 10.9663 3.21951 10.9663H20.7805C21.454 10.9663 22 11.5228 22 12.2093C22 12.8958 21.454 13.4523 20.7805 13.4523H3.21951C2.54599 13.4523 2 12.8958 2 12.2093Z" fill="#CDCDCD"/>
<path fill-rule="evenodd" clip-rule="evenodd" d="M2 18.1756C2 17.4892 2.54599 16.9327 3.21951 16.9327H20.7805C21.454 16.9327 22 17.4892 22 18.1756C22 18.8621 21.454 19.4186 20.7805 19.4186H3.21951C2.54599 19.4186 2 18.8621 2 18.1756Z" fill="#CDCDCD"/>
</svg>
