<svg width="24" height="24" viewBox="0 0 24 24" fill="none" xmlns="http://www.w3.org/2000/svg">
<path fill-rule="evenodd" clip-rule="evenodd" d="M2.25833 2.26471C2.60525 1.91427 3.17057 1.91141 3.521 2.25833L8.97733 7.65982C9.32777 8.00674 9.33063 8.57206 8.98371 8.9225C8.63679 9.27293 8.07148 9.27579 7.72104 8.92887L2.26471 3.52738C1.91427 3.18047 1.91141 2.61515 2.25833 2.26471Z" fill="#CDCDCD"/>
<path fill-rule="evenodd" clip-rule="evenodd" d="M8.98371 15.0226C9.33063 15.373 9.32777 15.9383 8.97733 16.2853L3.521 21.6867C3.17057 22.0337 2.60525 22.0308 2.25833 21.6804C1.91141 21.3299 1.91427 20.7646 2.26471 20.4177L7.72104 15.0162C8.07148 14.6693 8.63679 14.6721 8.98371 15.0226Z" fill="#CDCDCD"/>
<path fill-rule="evenodd" clip-rule="evenodd" d="M15.0743 15.0194C15.423 14.6707 15.9883 14.6707 16.337 15.0194L21.7385 20.4209C22.0872 20.7696 22.0872 21.3349 21.7385 21.6836C21.3898 22.0322 20.8245 22.0322 20.4758 21.6836L15.0743 16.2821C14.7256 15.9334 14.7256 15.3681 15.0743 15.0194Z" fill="#CDCDCD"/>
<path fill-rule="evenodd" clip-rule="evenodd" d="M15.0194 8.92572C14.6707 8.57704 14.6707 8.01171 15.0194 7.66303L20.4209 2.26154C20.7695 1.91285 21.3349 1.91285 21.6836 2.26154C22.0322 2.61022 22.0322 3.17554 21.6836 3.52423L16.2821 8.92572C15.9334 9.2744 15.3681 9.2744 15.0194 8.92572Z" fill="#CDCDCD"/>
<path fill-rule="evenodd" clip-rule="evenodd" d="M20.9087 8.89482C20.9087 9.38793 20.5089 9.78768 20.0158 9.78768H15.1051C14.612 9.78768 14.2123 9.38793 14.2123 8.89482V3.98413C14.2123 3.49102 14.612 3.09127 15.1051 3.09127C15.5982 3.09127 15.998 3.49102 15.998 3.98413V8.00197H20.0158C20.5089 8.00197 20.9087 8.40171 20.9087 8.89482Z" fill="#CDCDCD"/>
<path fill-rule="evenodd" clip-rule="evenodd" d="M15.1051 20.9087C14.612 20.9087 14.2123 20.5089 14.2123 20.0158V15.1051C14.2123 14.612 14.612 14.2122 15.1051 14.2122H20.0158C20.5089 14.2122 20.9087 14.612 20.9087 15.1051C20.9087 15.5982 20.5089 15.998 20.0158 15.998H15.998V20.0158C15.998 20.5089 15.5982 20.9087 15.1051 20.9087Z" fill="#CDCDCD"/>
<path fill-rule="evenodd" clip-rule="evenodd" d="M8.89483 20.9087C8.40171 20.9087 8.00197 20.5089 8.00197 20.0158V15.998H3.98413C3.49102 15.998 3.09127 15.5982 3.09127 15.1051C3.09127 14.612 3.49102 14.2122 3.98413 14.2122H8.89483C9.38794 14.2122 9.78768 14.612 9.78768 15.1051V20.0158C9.78768 20.5089 9.38794 20.9087 8.89483 20.9087Z" fill="#CDCDCD"/>
<path fill-rule="evenodd" clip-rule="evenodd" d="M9.78768 8.89482C9.78768 9.38793 9.38794 9.78768 8.89483 9.78768H3.98413C3.49102 9.78768 3.09127 9.38793 3.09127 8.89482C3.09127 8.40171 3.49102 8.00197 3.98413 8.00197H8.00197V3.98413C8.00197 3.49102 8.40171 3.09127 8.89483 3.09127C9.38794 3.09127 9.78768 3.49102 9.78768 3.98413V8.89482Z" fill="#CDCDCD"/>
</svg>
