<svg width="24" height="24" viewBox="0 0 24 24" fill="none" xmlns="http://www.w3.org/2000/svg">
<path d="M10.8889 17.5556C7.04873 17.5556 4.22222 14.729 4.22222 10.8889C4.22222 7.04873 7.04873 4.22222 10.8889 4.22222C14.729 4.22222 17.5556 7.04873 17.5556 10.8889C17.5556 14.729 14.729 17.5556 10.8889 17.5556ZM10.8889 19.7778C15.8207 19.7778 19.7778 15.8207 19.7778 10.8889C19.7778 5.95712 15.8207 2 10.8889 2C5.95712 2 2 5.95712 2 10.8889C2 15.8207 5.95712 19.7778 10.8889 19.7778ZM21.6686 20.1092L17.2242 15.6647C17.0292 15.4503 16.7563 15.3333 16.4444 15.3333C15.8402 15.3333 15.3333 15.8402 15.3333 16.4444C15.3333 16.7563 15.4503 17.0292 15.6647 17.2242L20.1092 21.6686C20.3041 21.883 20.577 22 20.8889 22C21.4932 22 22 21.4932 22 20.8889C22 20.577 21.883 20.3041 21.6686 20.1092Z" fill="#CDCDCD"/>
</svg>
