<svg width="14" height="14" viewBox="0 0 14 14" fill="none" xmlns="http://www.w3.org/2000/svg">
<path d="M8.07352 11.2629C10.3848 11.2629 11.5407 11.2629 12.2584 10.5446C12.9767 9.82688 12.9767 8.67096 12.9767 6.35972C12.9767 4.04849 12.9767 2.89256 12.2584 2.17486C11.5407 1.45654 10.3848 1.45654 8.07352 1.45654H5.62193C3.31069 1.45654 2.15477 1.45654 1.43707 2.17486C0.71875 2.89256 0.71875 4.04849 0.71875 6.35972C0.71875 8.67096 0.71875 9.82688 1.43707 10.5446C1.83729 10.9454 2.37357 11.1226 3.17034 11.2004" stroke="#A1A1A1" stroke-width="1.22579" stroke-linecap="round" stroke-linejoin="round"/>
<path d="M9.11101 4.17976C9.05393 4.12262 8.98612 4.07732 8.91148 4.04647C8.83684 4.01562 8.75684 3.99983 8.67608 4C8.59532 4.00017 8.51538 4.0163 8.44088 4.04747C8.36637 4.07863 8.29875 4.12422 8.24192 4.1816L5.45323 6.99909C5.2844 7.16959 5.16933 7.38589 5.12227 7.62118L5.01195 8.17033C4.99211 8.26931 4.99703 8.37165 5.02626 8.46826C5.0555 8.56488 5.10814 8.65277 5.17951 8.72415C5.25089 8.79553 5.33879 8.84817 5.4354 8.8774C5.53202 8.90663 5.63436 8.91155 5.73333 8.89172L6.28249 8.78139C6.51777 8.73434 6.73407 8.61926 6.90458 8.45043L9.72207 5.66175C9.77945 5.60491 9.82503 5.5373 9.8562 5.46279C9.88736 5.38828 9.90349 5.30835 9.90366 5.22758C9.90383 5.14682 9.88804 5.06682 9.85719 4.99218C9.82634 4.91754 9.78105 4.84973 9.7239 4.79266L9.11101 4.17976V4.17976Z" stroke="#A1A1A1" stroke-width="1.22579" stroke-linecap="round" stroke-linejoin="round"/>
<path d="M7.15234 5.44043L7.76524 6.05333" stroke="#A1A1A1" stroke-width="1.22579"/>
<path d="M8.07416 11.2631C7.31662 11.2631 6.48186 11.5695 5.72003 11.9649C4.49546 12.6004 3.88317 12.9185 3.58163 12.7157C3.28008 12.5134 3.33708 11.8852 3.45169 10.6294L3.47743 10.3438" stroke="#A1A1A1" stroke-width="1.22579" stroke-linecap="round"/>
</svg>
