<svg width="36" height="36" viewBox="0 0 36 36" fill="none" xmlns="http://www.w3.org/2000/svg">
<path d="M22.5749 2.05664C22.3379 2.05664 22.0968 2.12093 21.8758 2.26959L7.63253 11.579H1.04325C0.689676 11.579 0.400391 11.8682 0.400391 12.2218V23.7932C0.400391 24.1468 0.689676 24.4361 1.04325 24.4361H7.63253L21.8758 33.7455C22.0968 33.8901 22.3419 33.9584 22.5749 33.9584C23.2459 33.9584 23.8647 33.4241 23.8647 32.6687V3.34637C23.8647 2.59102 23.2459 2.05664 22.5749 2.05664ZM20.9718 29.6995L9.21557 22.0133L8.49236 21.5432H3.29325V14.4718H8.49236L9.21155 14.0017L20.9718 6.31557V29.6995ZM34.954 16.5611H29.8111C29.4575 16.5611 29.1682 16.8504 29.1682 17.204V18.8111C29.1682 19.1647 29.4575 19.454 29.8111 19.454H34.954C35.3075 19.454 35.5968 19.1647 35.5968 18.8111V17.204C35.5968 16.8504 35.3075 16.5611 34.954 16.5611ZM33.2705 27.0799L28.8388 24.5205C28.766 24.4788 28.6857 24.4519 28.6024 24.4412C28.5192 24.4306 28.4347 24.4364 28.3537 24.4584C28.2728 24.4804 28.197 24.5182 28.1306 24.5695C28.0642 24.6208 28.0086 24.6847 27.9669 24.7575L27.1674 26.1437C26.9906 26.4491 27.095 26.8428 27.4004 27.0196L31.8321 29.579C31.9049 29.6207 31.9852 29.6476 32.0684 29.6582C32.1517 29.6689 32.2362 29.663 32.3171 29.641C32.3981 29.619 32.4739 29.5813 32.5403 29.5299C32.6067 29.4786 32.6623 29.4147 32.704 29.3419L33.5035 27.9557C33.6803 27.6504 33.5718 27.2566 33.2705 27.0799ZM27.9629 11.2575C28.0046 11.3304 28.0602 11.3942 28.1266 11.4456C28.1929 11.4969 28.2688 11.5346 28.3497 11.5567C28.4307 11.5787 28.5152 11.5845 28.5984 11.5739C28.6816 11.5632 28.762 11.5363 28.8348 11.4946L33.2665 8.93521C33.5718 8.75843 33.6763 8.36468 33.4995 8.05932L32.704 6.67718C32.6623 6.60436 32.6067 6.54046 32.5403 6.48914C32.4739 6.43782 32.3981 6.40007 32.3171 6.37806C32.2362 6.35605 32.1517 6.3502 32.0684 6.36085C31.9852 6.37149 31.9049 6.39843 31.8321 6.44012L27.4004 8.9995C27.2537 9.08504 27.1468 9.22521 27.1031 9.38935C27.0594 9.55349 27.0825 9.72824 27.1674 9.87539L27.9629 11.2575Z" fill="black" fill-opacity="0.85"/>
</svg>
