<svg width="98" height="128" viewBox="0 0 98 128" fill="none" xmlns="http://www.w3.org/2000/svg">
    <path
            d="M12.5002 127.833C9.15433 127.833 6.29111 126.643 3.9105 124.262C1.52583 121.877 0.333496 119.012 0.333496 115.666V54.833C0.333496 51.4872 1.52583 48.6219 3.9105 46.2373C6.29111 43.8566 9.15433 42.6663 12.5002 42.6663H18.5835V30.4997C18.5835 22.0844 21.5501 14.9101 27.4834 8.97684C33.4126 3.04762 40.5849 0.0830078 49.0002 0.0830078C57.4154 0.0830078 64.5897 3.04762 70.523 8.97684C76.4522 14.9101 79.4168 22.0844 79.4168 30.4997V42.6663H85.5002C88.846 42.6663 91.7113 43.8566 94.0959 46.2373C96.4765 48.6219 97.6668 51.4872 97.6668 54.833V115.666C97.6668 119.012 96.4765 121.877 94.0959 124.262C91.7113 126.643 88.846 127.833 85.5002 127.833H12.5002ZM49.0002 97.4163C52.346 97.4163 55.2112 96.226 57.5959 93.8454C59.9765 91.4608 61.1668 88.5955 61.1668 85.2497C61.1668 81.9038 59.9765 79.0386 57.5959 76.6539C55.2112 74.2733 52.346 73.083 49.0002 73.083C45.6543 73.083 42.7911 74.2733 40.4105 76.6539C38.0258 79.0386 36.8335 81.9038 36.8335 85.2497C36.8335 88.5955 38.0258 91.4608 40.4105 93.8454C42.7911 96.226 45.6543 97.4163 49.0002 97.4163ZM30.7502 42.6663H67.2502V30.4997C67.2502 25.4302 65.4759 21.1212 61.9272 17.5726C58.3786 14.024 54.0696 12.2497 49.0002 12.2497C43.9307 12.2497 39.6217 14.024 36.0731 17.5726C32.5245 21.1212 30.7502 25.4302 30.7502 30.4997V42.6663Z"
            fill="#CDCDCD"/>
</svg>