<svg width="24" height="24" viewBox="0 0 24 24" fill="none" xmlns="http://www.w3.org/2000/svg">
<path fill-rule="evenodd" clip-rule="evenodd" d="M2.19802 9.19802C2.46204 8.93399 2.8901 8.93399 3.15412 9.19802L8.56264 14.6065C8.82666 14.8706 8.82666 15.2986 8.56264 15.5626C8.29862 15.8267 7.87056 15.8267 7.60654 15.5626L2.19802 10.1541C1.93399 9.8901 1.93399 9.46204 2.19802 9.19802Z" fill="#CDCDCD"/>
<path fill-rule="evenodd" clip-rule="evenodd" d="M8.77075 9.30203C8.50673 9.03801 8.07867 9.03801 7.81465 9.30203L2.40612 14.7106C2.1421 14.9746 2.1421 15.4026 2.40612 15.6667C2.67014 15.9307 3.0982 15.9307 3.36222 15.6667L8.77075 10.2581C9.03477 9.99411 9.03477 9.56605 8.77075 9.30203Z" fill="#CDCDCD"/>
<path d="M10.9968 15.3966V14.3398H12.3115V10.9699L11.3047 11.5607L10.8138 10.6205L12.6859 9.53045H13.6012V14.3398H14.8327V15.3966H10.9968Z" fill="#CDCDCD"/>
<path d="M15.5617 15.3966V14.0653H16.9096V15.3966H15.5617Z" fill="#CDCDCD"/>
<path d="M19.8116 15.4881C19.1016 15.4881 18.558 15.2246 18.1808 14.6976C17.8091 14.1707 17.6233 13.419 17.6233 12.4427C17.6233 11.4664 17.8091 10.7231 18.1808 10.2127C18.558 9.69686 19.1016 9.43892 19.8116 9.43892C20.5217 9.43892 21.0625 9.69686 21.4342 10.2127C21.8114 10.7231 22 11.4664 22 12.4427C22 13.419 21.8114 14.1707 21.4342 14.6976C21.0625 15.2246 20.5217 15.4881 19.8116 15.4881ZM19.8116 14.4397C20.1334 14.4397 20.3719 14.2816 20.5272 13.9654C20.6825 13.6437 20.7602 13.1361 20.7602 12.4427C20.7602 11.7493 20.6825 11.2501 20.5272 10.945C20.3719 10.6399 20.1334 10.4873 19.8116 10.4873C19.4899 10.4873 19.2514 10.6399 19.0961 10.945C18.9407 11.2501 18.8631 11.7493 18.8631 12.4427C18.8631 13.1361 18.9407 13.6437 19.0961 13.9654C19.2514 14.2816 19.4899 14.4397 19.8116 14.4397Z" fill="#CDCDCD"/>
</svg>
