<svg width="34" height="35" viewBox="0 0 34 35" fill="none" xmlns="http://www.w3.org/2000/svg">
<path d="M27.2216 27.3293C28.9774 27.3293 30.4117 25.8748 30.4117 24.0949C30.4117 21.9454 27.2216 18.4378 27.2216 18.4378C27.2216 18.4378 24.0314 21.9454 24.0314 24.0949C24.0314 25.8748 25.4658 27.3293 27.2216 27.3293ZM12.0702 25.5574C12.3555 25.8427 12.8176 25.8427 13.0988 25.5574L23.3885 15.2717C23.6738 14.9864 23.6738 14.5244 23.3885 14.2431L13.1028 3.95741C13.0787 3.9333 13.0506 3.9092 13.0225 3.88911L9.8805 0.747142C9.81199 0.679519 9.71961 0.641602 9.62335 0.641602C9.5271 0.641602 9.43471 0.679519 9.36621 0.747142L7.43764 2.67571C7.37002 2.74422 7.3321 2.8366 7.3321 2.93286C7.3321 3.02911 7.37002 3.1215 7.43764 3.19L10.1376 5.89L1.78853 14.2431C1.50326 14.5284 1.50326 14.9904 1.78853 15.2717L12.0702 25.5574ZM12.5885 7.5333L19.7765 14.7213H5.4046L12.5885 7.5333ZM32.7501 30.2101H1.25014C1.07335 30.2101 0.928711 30.3547 0.928711 30.5315V33.7458C0.928711 33.9226 1.07335 34.0672 1.25014 34.0672H32.7501C32.9269 34.0672 33.0716 33.9226 33.0716 33.7458V30.5315C33.0716 30.3547 32.9269 30.2101 32.7501 30.2101Z" fill="black" fill-opacity="0.85"/>
</svg>
