<svg width="24" height="24" viewBox="0 0 24 24" fill="none" xmlns="http://www.w3.org/2000/svg">
<path fill-rule="evenodd" clip-rule="evenodd" d="M19.3874 10.7037C19.5 10.6647 19.5976 10.5917 19.6666 10.4946C19.7357 10.3976 19.7728 10.2814 19.7728 10.1623C19.7728 10.0432 19.7357 9.92704 19.6666 9.83001C19.5976 9.73298 19.5 9.6599 19.3874 9.62094L5.00084 4.25865C4.89825 4.22019 4.78678 4.21198 4.67966 4.23499C4.57255 4.258 4.47427 4.31125 4.3965 4.38845C4.31873 4.46564 4.26472 4.56353 4.24089 4.6705C4.21706 4.77747 4.2244 4.88903 4.26204 4.99195L9.65128 19.406C9.69312 19.5176 9.76872 19.6134 9.86757 19.68C9.96641 19.7466 10.0836 19.7807 10.2027 19.7776C10.3218 19.7744 10.437 19.7342 10.5322 19.6624C10.6274 19.5907 10.6978 19.491 10.7337 19.3773L11.9616 15.6517C12.2191 14.8702 13.2089 14.6292 13.7982 15.2045L17.7433 19.0556C17.8506 19.1623 17.9957 19.2222 18.147 19.2222C18.2983 19.2222 18.4435 19.1623 18.5508 19.0556L19.4843 18.2098L19.487 18.2071C19.592 18.1015 19.6509 18.0422 19.6509 17.8921C19.6509 17.7407 19.591 17.5955 19.4843 17.4882L15.5814 13.6828C14.9859 13.1022 15.2163 12.0987 16.0058 11.8346L19.3874 10.7037ZM20.0719 20.6791C19.5532 21.1694 18.8648 21.4444 18.147 21.4444C17.4102 21.4444 16.7042 21.1546 16.181 20.6395L13.5188 18.0406L12.8522 20.0632C12.6757 20.6093 12.3348 21.0888 11.8747 21.4356C11.4094 21.7863 10.8455 21.9836 10.2618 21.999C9.67797 22.0145 9.10438 21.8473 8.621 21.5215C8.1377 21.1958 7.76896 20.7281 7.56516 20.1842L2.17255 5.76122L2.16982 5.75375C1.98645 5.25236 1.95074 4.70913 2.06679 4.18827C2.18284 3.66737 2.44597 3.18997 2.82578 2.81299C3.20564 2.43595 3.68628 2.17522 4.21098 2.06253C4.73476 1.95003 5.27976 1.98994 5.78133 2.17734C5.78223 2.17768 5.78314 2.17802 5.78405 2.17836L20.1515 7.53353C20.6881 7.72708 21.1523 8.07953 21.4824 8.54317C21.8193 9.01651 22 9.58247 22 10.1623C22 10.7422 21.8193 11.3081 21.4824 11.7815C21.1454 12.2549 20.6685 12.6124 20.1175 12.8031L20.1064 12.807L18.441 13.3639L21.0535 15.9111L21.0659 15.9235C21.5867 16.4477 21.8781 17.1555 21.8781 17.8921C21.8781 18.305 21.7847 18.766 21.5176 19.2104C21.4054 19.397 21.2895 19.535 21.2152 19.6178C21.1538 19.6864 21.0906 19.7497 21.0702 19.7701C21.0684 19.7719 21.067 19.7733 21.0659 19.7744L21.0248 19.8158L20.0719 20.6791ZM4.21764 6.33893L4.22146 6.34036C4.22019 6.33989 4.21891 6.33941 4.21764 6.33893Z" fill="#CDCDCD"/>
</svg>
