<svg width="24" height="24" viewBox="0 0 24 24" fill="none" xmlns="http://www.w3.org/2000/svg">
<path fill-rule="evenodd" clip-rule="evenodd" d="M13.5469 8.09357H2.85714C2.38376 8.09357 2 7.70083 2 7.21637C2 6.73191 2.38376 6.33918 2.85714 6.33918H13.5469C13.92 4.98918 15.1328 4 16.5714 4C18.01 4 19.2229 4.98918 19.596 6.33918H21.1429C21.6162 6.33918 22 6.73191 22 7.21637C22 7.70083 21.6162 8.09357 21.1429 8.09357H19.596C19.2229 9.44357 18.01 10.4327 16.5714 10.4327C15.1328 10.4327 13.92 9.44357 13.5469 8.09357ZM15.1429 7.21637C15.1429 6.40894 15.7825 5.75439 16.5714 5.75439C17.3604 5.75439 18 6.40894 18 7.21637C18 8.02381 17.3604 8.67836 16.5714 8.67836C15.7825 8.67836 15.1429 8.02381 15.1429 7.21637Z" fill="#CDCDCD"/>
<path fill-rule="evenodd" clip-rule="evenodd" d="M10.4531 17.4503H21.1429C21.6162 17.4503 22 17.0576 22 16.5731C22 16.0886 21.6162 15.6959 21.1429 15.6959H10.4531C10.08 14.3459 8.86717 13.3567 7.42857 13.3567C5.98997 13.3567 4.77712 14.3459 4.40402 15.6959H2.85714C2.38376 15.6959 2 16.0886 2 16.5731C2 17.0576 2.38376 17.4503 2.85714 17.4503H4.40402C4.77712 18.8003 5.98997 19.7895 7.42857 19.7895C8.86717 19.7895 10.08 18.8003 10.4531 17.4503ZM6 16.5731C6 15.7657 6.63959 15.1111 7.42857 15.1111C8.21755 15.1111 8.85714 15.7657 8.85714 16.5731C8.85714 17.3805 8.21755 18.0351 7.42857 18.0351C6.63959 18.0351 6 17.3805 6 16.5731Z" fill="#CDCDCD"/>
<path fill-rule="evenodd" clip-rule="evenodd" d="M13.5469 8.09357H2.85714C2.38376 8.09357 2 7.70083 2 7.21637C2 6.73191 2.38376 6.33918 2.85714 6.33918H13.5469C13.92 4.98918 15.1328 4 16.5714 4C18.01 4 19.2229 4.98918 19.596 6.33918H21.1429C21.6162 6.33918 22 6.73191 22 7.21637C22 7.70083 21.6162 8.09357 21.1429 8.09357H19.596C19.2229 9.44357 18.01 10.4327 16.5714 10.4327C15.1328 10.4327 13.92 9.44357 13.5469 8.09357ZM15.1429 7.21637C15.1429 6.40894 15.7825 5.75439 16.5714 5.75439C17.3604 5.75439 18 6.40894 18 7.21637C18 8.02381 17.3604 8.67836 16.5714 8.67836C15.7825 8.67836 15.1429 8.02381 15.1429 7.21637Z" stroke="#CDCDCD" stroke-width="0.3"/>
<path fill-rule="evenodd" clip-rule="evenodd" d="M10.4531 17.4503H21.1429C21.6162 17.4503 22 17.0576 22 16.5731C22 16.0886 21.6162 15.6959 21.1429 15.6959H10.4531C10.08 14.3459 8.86717 13.3567 7.42857 13.3567C5.98997 13.3567 4.77712 14.3459 4.40402 15.6959H2.85714C2.38376 15.6959 2 16.0886 2 16.5731C2 17.0576 2.38376 17.4503 2.85714 17.4503H4.40402C4.77712 18.8003 5.98997 19.7895 7.42857 19.7895C8.86717 19.7895 10.08 18.8003 10.4531 17.4503ZM6 16.5731C6 15.7657 6.63959 15.1111 7.42857 15.1111C8.21755 15.1111 8.85714 15.7657 8.85714 16.5731C8.85714 17.3805 8.21755 18.0351 7.42857 18.0351C6.63959 18.0351 6 17.3805 6 16.5731Z" stroke="#CDCDCD" stroke-width="0.3"/>
</svg>
