<svg width="24" height="24" viewBox="0 0 24 24" fill="none" xmlns="http://www.w3.org/2000/svg">
<path d="M2.51197 13.0208C1.82934 12.5041 1.82934 11.4959 2.51197 10.9792C4.62723 9.37815 6.98922 8.11617 9.50952 7.24054L9.97059 7.08035C10.8309 6.78144 11.7404 7.35086 11.857 8.22035C11.9932 9.23671 12.0738 10.2701 12.0986 11.3067C12.1778 11.1851 12.28 11.0739 12.4051 10.9792C14.5203 9.37815 16.8823 8.11617 19.4026 7.24054L19.8637 7.08035C20.724 6.78144 21.6335 7.35086 21.7501 8.22035C22.0833 10.7061 22.0833 13.2939 21.7501 15.7796C21.6335 16.6491 20.724 17.2186 19.8637 16.9197L19.4026 16.7595C16.8823 15.8838 14.5203 14.6219 12.4051 13.0208C12.28 12.9261 12.1778 12.8149 12.0986 12.6933C12.0738 13.7299 11.9932 14.7633 11.857 15.7796C11.7404 16.6491 10.8309 17.2186 9.97059 16.9197L9.50952 16.7595C6.98922 15.8838 4.62723 14.6219 2.51197 13.0208Z" fill="#CDCDCD"/>
</svg>
