<svg width="27" height="27" viewBox="0 0 27 27" fill="none" xmlns="http://www.w3.org/2000/svg">
<path d="M20.6895 4.35449H5.44533C4.57897 4.35449 3.74809 4.69865 3.13548 5.31126C2.52287 5.92387 2.17871 6.75475 2.17871 7.62111V18.5098C2.17871 19.3762 2.52287 20.2071 3.13548 20.8197C3.74809 21.4323 4.57897 21.7764 5.44533 21.7764H20.6895C21.5559 21.7764 22.3868 21.4323 22.9994 20.8197C23.612 20.2071 23.9561 19.3762 23.9561 18.5098V7.62111C23.9561 6.75475 23.612 5.92387 22.9994 5.31126C22.3868 4.69865 21.5559 4.35449 20.6895 4.35449ZM19.96 6.53224L13.0674 11.7044L6.17487 6.53224H19.96ZM20.6895 19.5987H5.44533C5.15654 19.5987 4.87958 19.484 4.67538 19.2798C4.47117 19.0756 4.35645 18.7986 4.35645 18.5098V7.89333L12.4141 13.9366C12.6026 14.0779 12.8318 14.1543 13.0674 14.1543C13.303 14.1543 13.5323 14.0779 13.7208 13.9366L21.7784 7.89333V18.5098C21.7784 18.7986 21.6637 19.0756 21.4595 19.2798C21.2553 19.484 20.9783 19.5987 20.6895 19.5987Z" fill="#A1A1A1"/>
</svg>
