<svg width="24" height="24" viewBox="0 0 24 24" fill="none" xmlns="http://www.w3.org/2000/svg">
<path d="M16.4444 18.3125H8.66667C6.07407 18.3125 4.22222 16.4896 4.22222 13.9375C4.22222 11.3854 6.07407 9.5625 8.66667 9.5625H20.8889C21.5127 9.5625 22 9.08279 22 8.46875C22 7.85472 21.5127 7.375 20.8889 7.375H8.66667C4.98246 7.375 2 10.3109 2 13.9375C2 17.5641 4.98246 20.5 8.66667 20.5H16.4444C17.0682 20.5 17.5556 20.0203 17.5556 19.4062C17.5556 18.7922 17.0682 18.3125 16.4444 18.3125ZM15.6647 4.86129L20.1092 9.23629C20.3041 9.44737 20.577 9.5625 20.8889 9.5625C21.5127 9.5625 22 9.08279 22 8.46875C22 8.16173 21.883 7.89309 21.6686 7.70121L17.2242 3.32621C17.0292 3.11513 16.7563 3 16.4444 3C15.8207 3 15.3333 3.47971 15.3333 4.09375C15.3333 4.40077 15.4503 4.66941 15.6647 4.86129ZM20.1092 7.70121L15.6647 12.0762C15.4503 12.2681 15.3333 12.5367 15.3333 12.8438C15.3333 13.4578 15.8207 13.9375 16.4444 13.9375C16.7563 13.9375 17.0292 13.8224 17.2242 13.6113L21.6686 9.23629C21.883 9.04441 22 8.77577 22 8.46875C22 7.85472 21.5127 7.375 20.8889 7.375C20.577 7.375 20.3041 7.49013 20.1092 7.70121Z" fill="#CDCDCD"/>
</svg>
