<svg width="24" height="24" viewBox="0 0 24 24" fill="none" xmlns="http://www.w3.org/2000/svg">
<path d="M7.55556 20.1429H15.3333C19.0175 20.1429 22 17.2669 22 13.7143C22 10.1617 19.0175 7.28572 15.3333 7.28572H3.11111C2.48733 7.28572 2 7.75564 2 8.35714C2 8.95865 2.48733 9.42857 3.11111 9.42857H15.3333C17.9259 9.42857 19.7778 11.2143 19.7778 13.7143C19.7778 16.2143 17.9259 18 15.3333 18H7.55556C6.93177 18 6.44444 18.4699 6.44444 19.0714C6.44444 19.6729 6.93177 20.1429 7.55556 20.1429ZM6.77583 3.31955L2.33138 7.60526C2.11696 7.79323 2 8.05639 2 8.35714C2 8.95865 2.48733 9.42857 3.11111 9.42857C3.423 9.42857 3.69591 9.31579 3.89084 9.10902L8.33528 4.82331C8.54971 4.63534 8.66667 4.37218 8.66667 4.07143C8.66667 3.46992 8.17934 3 7.55556 3C7.24366 3 6.97076 3.11278 6.77583 3.31955ZM2.33138 9.10902L6.77583 13.3947C6.97076 13.6015 7.24366 13.7143 7.55556 13.7143C8.17934 13.7143 8.66667 13.2444 8.66667 12.6429C8.66667 12.3421 8.54971 12.0789 8.33528 11.891L3.89084 7.60526C3.69591 7.3985 3.423 7.28572 3.11111 7.28572C2.48733 7.28572 2 7.75564 2 8.35714C2 8.6579 2.11696 8.92105 2.33138 9.10902Z" fill="#CDCDCD"/>
</svg>
