<svg width="24" height="24" viewBox="0 0 24 24" fill="none" xmlns="http://www.w3.org/2000/svg">
<path fill-rule="evenodd" clip-rule="evenodd" d="M21.6364 12C21.6364 17.5228 17.2406 22 11.8182 22C6.39575 22 2 17.5228 2 12C2 6.47715 6.39575 2 11.8182 2C17.2406 2 21.6364 6.47715 21.6364 12ZM9.36362 7.7143C9.9446 7.7143 10.4156 8.19399 10.4156 8.78573V15.2143C10.4156 15.806 9.9446 16.2857 9.36362 16.2857C8.78265 16.2857 8.31167 15.806 8.31167 15.2143V8.78573C8.31167 8.19399 8.78265 7.7143 9.36362 7.7143ZM15.3247 8.78573C15.3247 8.19399 14.8537 7.7143 14.2727 7.7143C13.6917 7.7143 13.2208 8.19399 13.2208 8.78573V15.2143C13.2208 15.806 13.6917 16.2857 14.2727 16.2857C14.8537 16.2857 15.3247 15.806 15.3247 15.2143V8.78573Z" fill="#CDCDCD"/>
</svg>
