<svg width="24" height="24" viewBox="0 0 24 24" fill="none" xmlns="http://www.w3.org/2000/svg">
<path fill-rule="evenodd" clip-rule="evenodd" d="M6.91945 2.31768C7.26007 2.70432 7.22062 3.29201 6.83134 3.63032L4.96092 5.25583H17.4537C19.5227 5.25583 21.2 6.92174 21.2 8.97676V11.7675C21.2 12.2812 20.7807 12.6977 20.2634 12.6977C19.7462 12.6977 19.3269 12.2812 19.3269 11.7675V8.97676C19.3269 7.94925 18.4882 7.11629 17.4537 7.11629H4.96092L6.83134 8.7418C7.22062 9.08011 7.26007 9.66779 6.91945 10.0544C6.57883 10.4411 5.98712 10.4803 5.59784 10.1419L2.65703 7.5862C1.80412 6.84497 1.80412 5.52715 2.65703 4.78592L5.59784 2.23017C5.98712 1.89187 6.57883 1.93104 6.91945 2.31768Z" fill="#CDCDCD"/>
<path fill-rule="evenodd" clip-rule="evenodd" d="M16.2806 21.6823C15.94 21.2957 15.9795 20.708 16.3687 20.3697L18.2392 18.7442H5.7464C3.67734 18.7442 2.00004 17.0782 2.00004 15.0232V12.2325C2.00004 11.7188 2.41936 11.3023 2.93663 11.3023C3.45389 11.3023 3.87322 11.7188 3.87322 12.2325V15.0232C3.87322 16.0507 4.71187 16.8837 5.7464 16.8837H18.2392L16.3687 15.2582C15.9795 14.9199 15.94 14.3322 16.2806 13.9456C16.6212 13.5589 17.2129 13.5197 17.6022 13.858L20.543 16.4138C21.3959 17.155 21.396 18.4728 20.543 19.2141L17.6022 21.7698C17.2129 22.1081 16.6212 22.0689 16.2806 21.6823Z" fill="#CDCDCD"/>
</svg>
