<svg width="24" height="24" viewBox="0 0 24 24" fill="none" xmlns="http://www.w3.org/2000/svg">
<path d="M12.2189 3.91953H11.7811L13.7873 7.92156C14.1703 8.71834 14.8451 9.18917 15.7206 9.29782L20.1524 9.93163C20.1342 9.93163 20.0065 9.53324 20.0065 9.51513L16.7784 12.6479C16.14 13.2636 15.903 14.0061 16.0489 14.8934L16.8149 19.312C16.8331 19.3844 17.0337 18.986 17.1796 19.0584L13.2037 16.9759C12.383 16.5413 11.617 16.5413 10.7963 16.9759L6.82038 19.0584C6.96629 18.986 7.16691 19.3844 7.18514 19.312L7.95114 14.8934C8.09705 14.0061 7.85995 13.2817 7.22162 12.6479L3.99348 9.51513C3.99348 9.53324 3.86581 9.93163 3.84757 9.93163L8.27943 9.29782C9.15486 9.18917 9.82967 8.71834 10.2127 7.92156L12.2189 3.91953ZM10.3586 2.97787L8.35238 7.01612C8.24295 7.23343 8.24295 7.23343 7.98762 7.26964L3.55576 7.90345C2.07848 8.10264 1.47662 9.93163 2.53443 11L5.76257 14.1329C5.94495 14.3139 5.94495 14.3139 5.90848 14.5675L5.14248 18.9498C4.88714 20.4347 6.4921 21.5937 7.80524 20.8693L11.7811 18.7868C12 18.6782 12 18.6782 12.2189 18.7868L16.1948 20.8693C17.5079 21.5937 19.1129 20.4347 18.8575 18.9498L18.0915 14.5675C18.055 14.2958 18.055 14.2958 18.2374 14.1329L21.4656 11C22.5234 9.93163 21.9215 8.10264 20.4442 7.90345L16.0124 7.26964C15.757 7.23343 15.757 7.23343 15.6476 7.01612L13.6414 2.97787C12.9484 1.67404 11.0516 1.67404 10.3586 2.97787Z" fill="#CDCDCD"/>
</svg>
