<svg width="24" height="24" viewBox="0 0 24 24" fill="none" xmlns="http://www.w3.org/2000/svg">
<ellipse cx="13.2306" cy="4.24718" rx="2.19776" ry="2.24718" fill="#CDCDCD"/>
<path fill-rule="evenodd" clip-rule="evenodd" d="M16.3075 17.2808C15.822 17.2808 15.4284 17.6832 15.4284 18.1797C15.4284 18.6761 15.822 19.0785 16.3075 19.0785C16.793 19.0785 17.1866 18.6761 17.1866 18.1797C17.1866 17.6832 16.793 17.2808 16.3075 17.2808ZM18.9448 18.1797C18.9448 19.6689 17.764 20.8763 16.3075 20.8763C14.8509 20.8763 13.6702 19.6689 13.6702 18.1797C13.6702 16.6904 14.8509 15.483 16.3075 15.483C17.764 15.483 18.9448 16.6904 18.9448 18.1797Z" fill="#CDCDCD"/>
<path fill-rule="evenodd" clip-rule="evenodd" d="M12.7775 7.26763C13.0623 7.12293 13.399 7.12293 13.6837 7.26763L19.4339 10.19C19.9774 10.4662 20.1989 11.1406 19.9288 11.6962C19.6587 12.2519 18.9991 12.4785 18.4557 12.2023L14.429 10.1559C15.0181 15.5963 18.0738 18.9382 19.5518 19.9397C20.0577 20.2825 20.196 20.9797 19.8608 21.497C19.5255 22.0142 18.8436 22.1557 18.3377 21.8129C16.8814 20.826 14.5838 18.4041 13.2306 14.6813C11.8774 18.4041 9.57979 20.826 8.12348 21.8129C7.61759 22.1557 6.93571 22.0142 6.60045 21.497C6.26518 20.9797 6.4035 20.2825 6.90939 19.9397C8.3874 18.9382 11.4431 15.5963 12.0322 10.1559L8.00554 12.2023C7.69974 12.3577 7.3572 12.3539 7.06796 12.2219C7.33562 12.0678 7.51641 11.7746 7.51641 11.4381C7.51641 10.9417 7.12282 10.5392 6.6373 10.5392C6.63305 10.5392 6.62881 10.5393 6.62458 10.5393C6.72565 10.3956 6.86151 10.2743 7.02733 10.19L12.7775 7.26763ZM17.1866 18.1796C17.1866 18.6761 16.793 19.0785 16.3075 19.0785C15.822 19.0785 15.4284 18.6761 15.4284 18.1796C15.4284 17.6832 15.822 17.2808 16.3075 17.2808C16.793 17.2808 17.1866 17.6832 17.1866 18.1796Z" fill="#CDCDCD"/>
<path fill-rule="evenodd" clip-rule="evenodd" d="M6.63731 10.5393C6.1518 10.5393 5.75821 10.9417 5.75821 11.4381C5.75821 11.9346 6.1518 12.337 6.63731 12.337C7.12283 12.337 7.51642 11.9346 7.51642 11.4381C7.51642 10.9417 7.12283 10.5393 6.63731 10.5393ZM9.27462 11.4381C9.27462 12.9274 8.09386 14.1347 6.63731 14.1347C5.18076 14.1347 4 12.9274 4 11.4381C4 9.94884 5.18076 8.74152 6.63731 8.74152C8.09386 8.74152 9.27462 9.94884 9.27462 11.4381Z" fill="#CDCDCD"/>
</svg>
