<svg width="24" height="24" viewBox="0 0 24 24" fill="none" xmlns="http://www.w3.org/2000/svg">
<path d="M12.6363 11.403C12.5696 11.2983 12.4836 11.2025 12.3782 11.121C10.5964 9.74236 8.60684 8.65569 6.4839 7.9017L6.09552 7.76376C5.37082 7.50638 4.60474 7.9967 4.50655 8.7454C4.22584 10.8858 4.22584 13.1142 4.50655 15.2546C4.60474 16.0033 5.37082 16.4936 6.09552 16.2362L6.4839 16.0983C8.60684 15.3443 10.5964 14.2576 12.3782 12.879C12.4836 12.7974 12.5696 12.7017 12.6363 12.597C12.6573 13.4895 12.7251 14.3794 12.8399 15.2546C12.9381 16.0033 13.7042 16.4936 14.4289 16.2362L14.8172 16.0983C16.9402 15.3443 18.9298 14.2576 20.7115 12.879C21.2865 12.434 21.2865 11.5659 20.7115 11.121C18.9298 9.74236 16.9402 8.65569 14.8172 7.9017L14.4289 7.76376C13.7042 7.50638 12.9381 7.9967 12.8399 8.7454C12.7251 9.62057 12.6573 10.5104 12.6363 11.403Z" fill="#CDCDCD"/>
</svg>
