<svg width="24" height="24" viewBox="0 0 24 24" fill="none" xmlns="http://www.w3.org/2000/svg">
<path d="M6.33333 8.5921C5.78105 8.5921 5.33333 9.03982 5.33333 9.59211V19.7836C5.33333 20.3973 5.8308 20.8947 6.44444 20.8947C7.05809 20.8947 7.55556 20.3973 7.55556 19.7836V9.5921C7.55556 9.03982 7.10784 8.5921 6.55556 8.5921H6.33333ZM2 9.71053C2 10.3282 2.50073 10.8289 3.11842 10.8289H9.77047C10.3882 10.8289 10.8889 10.3282 10.8889 9.71053C10.8889 9.09284 10.3882 8.5921 9.77047 8.5921H3.11842C2.50073 8.5921 2 9.09284 2 9.71053ZM15.2222 3C14.6699 3 14.2222 3.44772 14.2222 4V19.7836C14.2222 20.3973 14.7197 20.8947 15.3333 20.8947C15.947 20.8947 16.4444 20.3973 16.4444 19.7836V4C16.4444 3.44772 15.9967 3 15.4444 3H15.2222ZM8.66667 4.11842C8.66667 4.73611 9.1674 5.23684 9.78509 5.23684H20.8816C21.4993 5.23684 22 4.73611 22 4.11842C22 3.50073 21.4993 3 20.8816 3H9.78509C9.1674 3 8.66667 3.50073 8.66667 4.11842Z" fill="#CDCDCD"/>
</svg>
