<svg width="24" height="25" viewBox="0 0 24 25" fill="none" xmlns="http://www.w3.org/2000/svg">
<path d="M15.185 18.9562L15.2783 18.9202C15.1595 18.6128 15.099 18.286 15.1 17.9565V17.9562C15.1 17.7971 15.0368 17.6445 14.9243 17.532C14.8117 17.4195 14.6591 17.3562 14.5 17.3562C14.3409 17.3562 14.1883 17.4195 14.0757 17.532C13.9632 17.6445 13.9 17.7971 13.9 17.9562C13.9 18.3094 13.9535 18.6551 14.0533 18.9852C14.224 19.5527 14.533 20.0768 14.9454 20.524C15.6691 21.3115 16.7143 21.8655 17.9 22.018V22.9562C17.9 23.1154 17.9632 23.268 18.0757 23.3805C18.1883 23.493 18.3409 23.5562 18.5 23.5562C18.6591 23.5562 18.8117 23.493 18.9243 23.3805C19.0368 23.268 19.1 23.1154 19.1 22.9562V22.018C21.3471 21.7285 23.1 19.9908 23.1 17.9562C23.1 17.7971 23.0368 17.6445 22.9243 17.532C22.8117 17.4195 22.6591 17.3562 22.5 17.3562C22.3409 17.3562 22.1883 17.4195 22.0757 17.532C21.9632 17.6445 21.9 17.7971 21.9 17.9562C21.9 19.6353 20.395 20.8562 18.5 20.8562C17.7822 20.8562 17.1174 20.6802 16.5704 20.3693L16.5703 20.3693C15.9711 20.0293 15.514 19.5272 15.2782 18.92L15.185 18.9562ZM15.185 18.9562C15.43 19.5872 15.904 20.1062 16.521 20.4562H15.019C14.616 20.0192 14.315 19.5082 14.149 18.9562C14.052 18.6352 14 18.2992 14 17.9562C14 17.8236 14.0527 17.6965 14.1464 17.6027C14.2402 17.5089 14.3674 17.4562 14.5 17.4562C14.6326 17.4562 14.7598 17.5089 14.8536 17.6027C14.9473 17.6965 15 17.8236 15 17.9562C14.999 18.2982 15.0617 18.6373 15.185 18.9562ZM18.5004 20.0562C20.0619 20.056 21.1 18.7506 21.1 17.4562V14.9562C21.1 14.4059 20.9126 13.8563 20.5805 13.4059L20.5805 13.4058C20.1263 12.7906 19.3995 12.3562 18.5 12.3562C16.9385 12.3562 15.9 13.6535 15.9 14.9562L15.9 17.4562L15.9 17.457C15.9042 18.0192 16.088 18.5654 16.4246 19.0158M18.5004 20.0562C18.0968 20.0595 17.6981 19.9669 17.3372 19.786C16.9764 19.6051 16.6636 19.3411 16.4246 19.0158M18.5004 20.0562C18.5003 20.0562 18.5001 20.0562 18.5 20.0562V19.9562L18.5008 20.0562C18.5007 20.0562 18.5005 20.0562 18.5004 20.0562ZM16.4246 19.0158C16.4246 19.0156 16.4245 19.0155 16.4244 19.0154L16.505 18.9562L16.4249 19.0161C16.4248 19.016 16.4247 19.0159 16.4246 19.0158ZM13.753 20.5562H13.9381L13.8366 20.4014C13.5428 19.953 13.3308 19.4561 13.2104 18.9338L13.1926 18.8562H13.113H4.75C4.11523 18.8562 3.6 18.341 3.6 17.7062V7.20624C3.6 6.57147 4.11523 6.05624 4.75 6.05624H19.25C19.8848 6.05624 20.4 6.57147 20.4 7.20624V12.0802V12.1317L20.4419 12.1616C20.8879 12.4799 21.2524 12.899 21.5057 13.3849C21.7591 13.8707 21.8942 14.4094 21.9 14.9573L22.1 14.9562V7.20624C22.1 6.45037 21.7997 5.72546 21.2653 5.19098C20.7308 4.6565 20.0059 4.35624 19.25 4.35624H4.75C3.99413 4.35624 3.26922 4.6565 2.73475 5.19098C2.20027 5.72546 1.9 6.45037 1.9 7.20624V17.7062C1.9 18.0805 1.97372 18.4511 2.11694 18.7969C2.26017 19.1427 2.4701 19.4568 2.73475 19.7215C2.99939 19.9861 3.31357 20.1961 3.65935 20.3393C4.00513 20.4825 4.37573 20.5562 4.75 20.5562H13.753Z" fill="#0978AC" stroke="#C4C4C4" stroke-width="0.2"/>
<path d="M14.5 11.5902C15.1667 11.9751 15.1667 12.9374 14.5 13.3223L10 15.9203C9.33333 16.3052 8.5 15.8241 8.5 15.0543L8.5 9.85816C8.5 9.08836 9.33333 8.60724 10 8.99214L14.5 11.5902Z" fill="#0978AC"/>
</svg>
