<svg width="24" height="24" viewBox="0 0 24 24" fill="none" xmlns="http://www.w3.org/2000/svg">
<path fill-rule="evenodd" clip-rule="evenodd" d="M3.2604 3.26683C3.61009 2.91358 4.17993 2.91071 4.53317 3.2604L9.03316 7.71517C9.3864 8.06487 9.38927 8.63471 9.03958 8.98795C8.68989 9.34119 8.12005 9.34407 7.76681 8.99438L3.26683 4.5396C2.91358 4.18991 2.91071 3.62007 3.2604 3.26683Z" fill="#CDCDCD"/>
<path fill-rule="evenodd" clip-rule="evenodd" d="M9.03958 14.9668C9.38927 15.3201 9.3864 15.8899 9.03316 16.2396L4.53317 20.6944C4.17993 21.0441 3.61009 21.0412 3.2604 20.6879C2.91071 20.3347 2.91358 19.7648 3.26683 19.4152L7.76681 14.9604C8.12005 14.6107 8.68989 14.6136 9.03958 14.9668Z" fill="#CDCDCD"/>
<path fill-rule="evenodd" clip-rule="evenodd" d="M15.0089 14.9636C15.3603 14.6121 15.9302 14.6121 16.2816 14.9636L20.7364 19.4184C21.0879 19.7698 21.0879 20.3397 20.7364 20.6912C20.3849 21.0426 19.8151 21.0426 19.4636 20.6912L15.0089 16.2364C14.6574 15.8849 14.6574 15.3151 15.0089 14.9636Z" fill="#CDCDCD"/>
<path fill-rule="evenodd" clip-rule="evenodd" d="M20.691 3.2636C21.0425 3.61508 21.0425 4.18492 20.691 4.5364L16.2363 8.99117C15.8848 9.34264 15.315 9.34264 14.9635 8.99117C14.612 8.6397 14.612 8.06985 14.9635 7.71838L19.4183 3.2636C19.7697 2.91213 20.3396 2.91213 20.691 3.2636Z" fill="#CDCDCD"/>
<path fill-rule="evenodd" clip-rule="evenodd" d="M15.15 3.9C15.15 3.40294 15.5529 3 16.05 3H20.0999C20.597 3 20.9999 3.40294 20.9999 3.9V7.95C20.9999 8.44706 20.597 8.85 20.0999 8.85C19.6029 8.85 19.2 8.44706 19.2 7.95V4.8H16.05C15.5529 4.8 15.15 4.39706 15.15 3.9Z" fill="#CDCDCD"/>
<path fill-rule="evenodd" clip-rule="evenodd" d="M20.0999 15.15C20.597 15.15 20.9999 15.5529 20.9999 16.05V20.1C20.9999 20.5971 20.597 21 20.0999 21H16.05C15.5529 21 15.15 20.5971 15.15 20.1C15.15 19.6029 15.5529 19.2 16.05 19.2H19.2V16.05C19.2 15.5529 19.6029 15.15 20.0999 15.15Z" fill="#CDCDCD"/>
<path fill-rule="evenodd" clip-rule="evenodd" d="M3.9 15.15C4.39705 15.15 4.79999 15.5529 4.79999 16.05V19.2H7.94998C8.44704 19.2 8.84998 19.6029 8.84998 20.1C8.84998 20.5971 8.44704 21 7.94998 21H3.9C3.40294 21 3 20.5971 3 20.1V16.05C3 15.5529 3.40294 15.15 3.9 15.15Z" fill="#CDCDCD"/>
<path fill-rule="evenodd" clip-rule="evenodd" d="M3 3.9C3 3.40294 3.40294 3 3.9 3H7.94998C8.44704 3 8.84998 3.40294 8.84998 3.9C8.84998 4.39706 8.44704 4.8 7.94998 4.8H4.79999V7.95C4.79999 8.44706 4.39705 8.85 3.9 8.85C3.40294 8.85 3 8.44706 3 7.95V3.9Z" fill="#CDCDCD"/>
</svg>
