<svg width="36" height="36" viewBox="0 0 36 36" fill="none" xmlns="http://www.w3.org/2000/svg">
<path d="M20.0799 17.9981L30.6268 5.42624C30.8036 5.21731 30.6549 4.8999 30.3817 4.8999H27.1754C26.9866 4.8999 26.8058 4.98428 26.6812 5.12892L17.9826 15.499L9.28392 5.12892C9.16338 4.98428 8.98258 4.8999 8.78972 4.8999H5.58347C5.31026 4.8999 5.16159 5.21731 5.33838 5.42624L15.8853 17.9981L5.33838 30.57C5.29878 30.6166 5.27337 30.6735 5.26518 30.7341C5.25698 30.7947 5.26634 30.8563 5.29215 30.9118C5.31795 30.9672 5.35912 31.014 5.41076 31.0467C5.4624 31.0795 5.52234 31.0967 5.58347 31.0963H8.78972C8.97856 31.0963 9.15936 31.012 9.28392 30.8673L17.9826 20.4972L26.6812 30.8673C26.8018 31.012 26.9826 31.0963 27.1754 31.0963H30.3817C30.6549 31.0963 30.8036 30.7789 30.6268 30.57L20.0799 17.9981Z" fill="black" fill-opacity="0.85"/>
</svg>
