<svg width="36" height="36" viewBox="0 0 36 36" fill="none" xmlns="http://www.w3.org/2000/svg">
<g clip-path="url(#clip0_72172_16577)">
<path d="M24.8303 15.7172V9.93146L21.7767 12.985V15.7172C21.7727 17.7542 20.0892 19.4176 17.9999 19.4136C17.26 19.4177 16.5346 19.2084 15.9106 18.8109L13.741 21.0207C14.9102 21.9207 16.3887 22.4672 17.9999 22.4672C21.7686 22.4672 24.8303 19.4498 24.8303 15.7172Z" fill="black" fill-opacity="0.85"/>
<path d="M30.8971 15.3492H28.4864C28.3096 15.3492 28.165 15.4939 28.165 15.6706C28.165 21.3077 23.5967 25.876 17.9596 25.876C15.4284 25.876 13.1101 24.9519 11.3301 23.4251L9.16051 25.5947C11.1773 27.3761 13.6831 28.51 16.3525 28.8492V32.9474H10.5266C9.9681 32.9474 9.52613 33.522 9.52211 34.2331V35.6796C9.52613 35.8564 9.63863 36.001 9.76319 36.001H26.156C26.2846 36.001 26.3971 35.8564 26.3971 35.6796V34.2331C26.3971 33.522 25.9551 32.9474 25.3926 32.9474H19.406V28.8492C26.0476 28.13 31.2185 22.505 31.2185 15.6706C31.2185 15.4939 31.0739 15.3492 30.8971 15.3492ZM31.4235 0.173764L29.6757 -1.50972C29.6151 -1.56808 29.534 -1.60035 29.4499 -1.5996C29.3657 -1.59885 29.2852 -1.56513 29.2257 -1.5057L24.0427 3.67734C22.9136 1.49564 20.6114 0.00099659 17.9596 0.00099659C14.1868 0.00099659 11.1293 3.02644 11.1293 6.751V15.751C11.1293 16.0202 11.1453 16.2854 11.1775 16.5465L8.44533 19.2787C8.0109 18.1255 7.79033 16.9029 7.79444 15.6706C7.7864 15.4939 7.64176 15.3492 7.47301 15.3492H5.06229C4.88551 15.3492 4.74086 15.4939 4.74086 15.6706C4.74086 17.8001 5.2431 19.809 6.13104 21.593L0.626578 27.0974C0.56676 27.1578 0.533203 27.2394 0.533203 27.3244C0.533203 27.4094 0.56676 27.491 0.626578 27.5514L2.3422 29.2671C2.46676 29.3916 2.67167 29.3916 2.79622 29.2671L31.4315 0.6318C31.556 0.503229 31.552 0.298318 31.4235 0.173764ZM14.1828 13.5412V6.751C14.1828 4.71796 15.8663 3.05457 17.9596 3.05457C19.8078 3.05457 21.3386 4.35234 21.6681 6.05591L14.1828 13.5412Z" fill="black" fill-opacity="0.85"/>
</g>
<defs>
<clipPath id="clip0_72172_16577">
<rect width="36" height="36" fill="white"/>
</clipPath>
</defs>
</svg>
