<svg width="12" height="16" viewBox="0 0 12 16" fill="none" xmlns="http://www.w3.org/2000/svg">
<path d="M11.2212 4.52972H0.778846C0.572283 4.52972 0.374181 4.61178 0.228119 4.75784C0.0820567 4.9039 0 5.102 0 5.30857C0 5.51513 0.0820567 5.71323 0.228119 5.85929C0.374181 6.00536 0.572283 6.08741 0.778846 6.08741H3.71769C3.91702 6.08741 4.15038 6.17655 4.2825 6.5201C4.43683 6.91905 4.36125 7.68953 4.26606 8.28636L4.14144 8.99164C4.14167 8.99348 4.14148 8.99534 4.14088 8.99709C4.14028 8.99884 4.13929 9.00043 4.13798 9.00174L3.1399 14.679C3.10371 14.885 3.15061 15.0971 3.27035 15.2686C3.3901 15.4402 3.57293 15.5574 3.77885 15.5945C3.88065 15.6125 3.98502 15.6101 4.08589 15.5875C4.18676 15.5648 4.28212 15.5223 4.36645 15.4625C4.45077 15.4027 4.52236 15.3267 4.57708 15.239C4.6318 15.1513 4.66855 15.0536 4.68519 14.9515L5.3749 11.0054C5.3749 11.0054 5.59615 10.0682 6 10.0682C6.41048 10.0682 6.62712 11.0054 6.62712 11.0054L7.31683 14.955C7.33351 15.0579 7.37052 15.1565 7.42569 15.245C7.48086 15.3335 7.55309 15.4101 7.63817 15.4704C7.72325 15.5307 7.81949 15.5735 7.92126 15.5962C8.02303 15.6189 8.12831 15.6211 8.23095 15.6028C8.3336 15.5844 8.43156 15.5458 8.51913 15.4891C8.6067 15.4325 8.68212 15.359 8.741 15.273C8.79988 15.1869 8.84104 15.09 8.86208 14.9878C8.88312 14.8857 8.88362 14.7804 8.86356 14.6781L7.86519 9.00087C7.8654 8.99906 7.86523 8.99723 7.86468 8.99549C7.86413 8.99375 7.86323 8.99214 7.86202 8.99078L7.73712 8.28549C7.64192 7.68866 7.56635 6.91818 7.72067 6.51924C7.85221 6.17655 8.09308 6.08655 8.27683 6.08655H11.2212C11.4277 6.08655 11.6258 6.00449 11.7719 5.85843C11.9179 5.71237 12 5.51426 12 5.3077C12 5.10114 11.9179 4.90303 11.7719 4.75697C11.6258 4.61091 11.4277 4.52885 11.2212 4.52885V4.52972Z" fill="white"/>
<circle cx="6.23074" cy="1.84615" r="1.84615" fill="white"/>
</svg>
