<svg width="24" height="24" viewBox="0 0 24 24" fill="none" xmlns="http://www.w3.org/2000/svg">
<path fill-rule="evenodd" clip-rule="evenodd" d="M5.52074 5.08529C6.10209 5.08529 6.57337 5.55657 6.57337 6.13792V19.8947H17.4264V6.13792C17.4264 5.55657 17.8976 5.08529 18.479 5.08529C19.0604 5.08529 19.5316 5.55657 19.5316 6.13792V19.8947C19.5316 21.0574 18.5891 22 17.4264 22H6.57337C5.41067 22 4.46811 21.0574 4.46811 19.8947V6.13792C4.46811 5.55657 4.93939 5.08529 5.52074 5.08529Z" fill="#CDCDCD"/>
<path fill-rule="evenodd" clip-rule="evenodd" d="M7.55354 3.05263C7.55354 2.47128 8.02482 2 8.60617 2H14.7768C15.3581 2 15.8294 2.47128 15.8294 3.05263C15.8294 3.63398 15.3581 4.10526 14.7768 4.10526H8.60617C8.02482 4.10526 7.55354 3.63398 7.55354 3.05263ZM2 6.13793C2 5.55658 2.47128 5.0853 3.05263 5.0853H20.9474C21.5287 5.0853 22 5.55658 22 6.13793C22 6.71928 21.5287 7.19056 20.9474 7.19056H3.05263C2.47128 7.19056 2 6.71928 2 6.13793ZM9.84029 9.40472C10.4216 9.40472 10.8929 9.876 10.8929 10.4574V17.245C10.8929 17.8264 10.4216 18.2976 9.84029 18.2976C9.25894 18.2976 8.78766 17.8264 8.78766 17.245V10.4574C8.78766 9.876 9.25894 9.40472 9.84029 9.40472ZM14.1597 9.40472C14.7411 9.40472 15.2123 9.876 15.2123 10.4574V17.245C15.2123 17.8264 14.7411 18.2976 14.1597 18.2976C13.5784 18.2976 13.1071 17.8264 13.1071 17.245V10.4574C13.1071 9.876 13.5784 9.40472 14.1597 9.40472Z" fill="#CDCDCD"/>
</svg>
