<svg width="40" height="56" viewBox="0 0 40 56" fill="none" xmlns="http://www.w3.org/2000/svg">
<path d="M19.6471 0C8.78504 0 0 8.71183 0 19.4833C0 34.0958 19.6471 55.6667 19.6471 55.6667C19.6471 55.6667 39.2941 34.0958 39.2941 19.4833C39.2941 8.71183 30.5091 0 19.6471 0ZM19.6471 26.4417C17.7861 26.4417 16.0013 25.7086 14.6854 24.4036C13.3695 23.0987 12.6303 21.3288 12.6303 19.4833C12.6303 17.6379 13.3695 15.868 14.6854 14.563C16.0013 13.2581 17.7861 12.525 19.6471 12.525C21.508 12.525 23.2928 13.2581 24.6087 14.563C25.9246 15.868 26.6639 17.6379 26.6639 19.4833C26.6639 21.3288 25.9246 23.0987 24.6087 24.4036C23.2928 25.7086 21.508 26.4417 19.6471 26.4417Z" fill="#D7F4FF"/>
</svg>
