<svg width="17" height="18" viewBox="0 0 17 18" fill="none" xmlns="http://www.w3.org/2000/svg">
<path fill-rule="evenodd" clip-rule="evenodd" d="M2.40625 3.17651C2.40625 3.11435 2.43094 3.05474 2.4749 3.01079C2.51885 2.96683 2.57846 2.94214 2.64062 2.94214H10.6094C10.6715 2.94214 10.7311 2.96683 10.7751 3.01079C10.8191 3.05474 10.8438 3.11435 10.8438 3.17651V8.33276C10.8438 8.39492 10.8191 8.45454 10.7751 8.49849C10.7311 8.54245 10.6715 8.56714 10.6094 8.56714H7.32812C7.14171 8.5673 6.96298 8.64149 6.83125 8.77339L4.28125 11.3234V9.27026C4.28125 9.08378 4.20717 8.90494 4.07531 8.77308C3.94345 8.64122 3.76461 8.56714 3.57812 8.56714H2.64062C2.57846 8.56714 2.51885 8.54245 2.4749 8.49849C2.43094 8.45454 2.40625 8.39492 2.40625 8.33276V3.17651ZM2.64062 1.53589C2.2055 1.53589 1.7882 1.70874 1.48053 2.01642C1.17285 2.32409 1 2.74139 1 3.17651L1 8.33276C1 9.23839 1.735 9.97339 2.64062 9.97339H2.875V11.42C2.87509 11.69 2.95526 11.954 3.10535 12.1786C3.25545 12.4031 3.46875 12.5781 3.71828 12.6815C3.96781 12.7848 4.24238 12.8119 4.50729 12.7592C4.77219 12.7065 5.01553 12.5765 5.20656 12.3856L7.61969 9.97339H10.6094C11.0445 9.97339 11.4618 9.80054 11.7695 9.49286C12.0771 9.18518 12.25 8.76788 12.25 8.33276V3.17651C12.25 2.74139 12.0771 2.32409 11.7695 2.01642C11.4618 1.70874 11.0445 1.53589 10.6094 1.53589H2.64062ZM14.5938 5.05151C14.5938 4.98935 14.5691 4.92974 14.5251 4.88579C14.4811 4.84183 14.4215 4.81714 14.3594 4.81714H13.8906C13.7041 4.81714 13.5253 4.74306 13.3934 4.6112C13.2616 4.47934 13.1875 4.30049 13.1875 4.11401C13.1875 3.92753 13.2616 3.74869 13.3934 3.61683C13.5253 3.48497 13.7041 3.41089 13.8906 3.41089H14.3594C15.265 3.41089 16 4.14589 16 5.05151V10.2078C16 10.6429 15.8271 11.0602 15.5195 11.3679C15.2118 11.6755 14.7945 11.8484 14.3594 11.8484H14.125V13.295C14.1249 13.565 14.0447 13.829 13.8946 14.0536C13.7445 14.2781 13.5313 14.4531 13.2817 14.5565C13.0322 14.6598 12.7576 14.6869 12.4927 14.6342C12.2278 14.5815 11.9845 14.4515 11.7934 14.2606L9.64375 12.1109C9.57467 12.0465 9.51926 11.9689 9.48083 11.8826C9.4424 11.7964 9.42174 11.7033 9.42007 11.6089C9.4184 11.5145 9.43577 11.4207 9.47113 11.3331C9.5065 11.2456 9.55913 11.1661 9.6259 11.0993C9.69267 11.0325 9.7722 10.9799 9.85975 10.9445C9.9473 10.9092 10.0411 10.8918 10.1355 10.8935C10.2299 10.8951 10.323 10.9158 10.4093 10.9542C10.4955 10.9926 10.5731 11.0481 10.6375 11.1171L12.7188 13.1984V11.1453C12.7187 10.9588 12.7928 10.7799 12.9247 10.6481C13.0566 10.5162 13.2354 10.4421 13.4219 10.4421H14.3594C14.4215 10.4421 14.4811 10.4174 14.5251 10.3735C14.5691 10.3295 14.5938 10.2699 14.5938 10.2078V5.05151V5.05151Z" fill="#0978AC"/>
</svg>
