<svg width="23" height="23" viewBox="0 0 23 23" fill="none" xmlns="http://www.w3.org/2000/svg">
<path fill-rule="evenodd" clip-rule="evenodd" d="M0 11.4653C0 8.42454 1.20795 5.50828 3.35812 3.35812C5.50828 1.20795 8.42454 0 11.4653 0C14.5061 0 17.4224 1.20795 19.5725 3.35812C21.7227 5.50828 22.9307 8.42454 22.9307 11.4653C22.9307 14.5061 21.7227 17.4224 19.5725 19.5725C17.4224 21.7227 14.5061 22.9307 11.4653 22.9307C8.42454 22.9307 5.50828 21.7227 3.35812 19.5725C1.20795 17.4224 0 14.5061 0 11.4653ZM11.4653 1.64458C8.86071 1.64458 6.36276 2.67926 4.52101 4.52101C2.67926 6.36276 1.64458 8.86071 1.64458 11.4653C1.64458 14.07 2.67926 16.5679 4.52101 18.4097C6.36276 20.2514 8.86071 21.2861 11.4653 21.2861C14.07 21.2861 16.5679 20.2514 18.4097 18.4097C20.2514 16.5679 21.2861 14.07 21.2861 11.4653C21.2861 8.86071 20.2514 6.36276 18.4097 4.52101C16.5679 2.67926 14.07 1.64458 11.4653 1.64458ZM10.8162 14.062C10.7209 14.2819 9.44336 19.1862 9.44336 19.1862C9.41381 19.296 9.36292 19.3989 9.29359 19.4891C9.22427 19.5792 9.13787 19.6548 9.03933 19.7115C8.84032 19.8261 8.60393 19.857 8.38217 19.7973C8.27237 19.7677 8.16946 19.7169 8.07933 19.6475C7.98919 19.5782 7.91359 19.4918 7.85685 19.3933C7.74225 19.1943 7.7114 18.9579 7.77108 18.7361C7.77108 18.7361 9.29448 13.8422 9.29448 12.7983V10.2553L5.90491 9.34642C5.79344 9.31863 5.68861 9.26894 5.59653 9.20022C5.50446 9.13151 5.42699 9.04515 5.36864 8.94619C5.31028 8.84722 5.27221 8.73763 5.25665 8.62381C5.24108 8.50998 5.24834 8.39419 5.27798 8.28319C5.30763 8.1722 5.35907 8.06821 5.42932 7.9773C5.49956 7.88639 5.5872 7.81038 5.68713 7.75369C5.78706 7.697 5.89727 7.66077 6.01134 7.64711C6.12541 7.63345 6.24106 7.64264 6.35155 7.67414C6.35155 7.67414 9.21485 8.64877 10.3332 8.64877H12.5992C13.7158 8.64877 16.5774 7.67414 16.5774 7.67414C16.7991 7.61445 17.0355 7.6453 17.2345 7.7599C17.4335 7.87451 17.5789 8.06347 17.6386 8.28523C17.6983 8.50699 17.6674 8.74337 17.5528 8.94239C17.4382 9.1414 17.2492 9.28673 17.0275 9.34642L13.6241 10.2587V12.7983C13.6241 13.8422 15.1475 18.7309 15.1475 18.7309C15.2069 18.9527 15.1758 19.189 15.0611 19.3878C14.9463 19.5867 14.7573 19.7318 14.5355 19.7912C14.3137 19.8507 14.0775 19.8196 13.8786 19.7049C13.6798 19.5901 13.5346 19.401 13.4752 19.1793C13.4752 19.1793 12.1924 14.2819 12.1041 14.062C12.0176 13.8422 11.725 13.8422 11.725 13.8422H11.1935C11.1935 13.8422 10.8941 13.8422 10.8162 14.062ZM11.4653 7.34522C11.9818 7.34522 12.4772 7.14004 12.8424 6.7748C13.2077 6.40957 13.4129 5.91421 13.4129 5.39769C13.4129 4.88117 13.2077 4.38581 12.8424 4.02058C12.4772 3.65535 11.9818 3.45016 11.4653 3.45016C10.9488 3.45016 10.4535 3.65535 10.0882 4.02058C9.72299 4.38581 9.5178 4.88117 9.5178 5.39769C9.5178 5.91421 9.72299 6.40957 10.0882 6.7748C10.4535 7.14004 10.9488 7.34522 11.4653 7.34522Z" fill="#A1A1A1"/>
</svg>
