<svg width="24" height="24" viewBox="0 0 24 24" fill="none" xmlns="http://www.w3.org/2000/svg">
<path d="M10.4101 14.6884V13.7433H11.6181V10.7293L10.693 11.2577L10.2419 10.4168L11.9622 9.44188H12.8032V13.7433H13.9348V14.6884H10.4101Z" fill="#CDCDCD"/>
<path fill-rule="evenodd" clip-rule="evenodd" d="M7.02017 2.31768C7.36774 2.70432 7.32749 3.29201 6.93027 3.63031L5.02168 5.25582H17.7694C19.8807 5.25582 21.5922 6.92174 21.5922 8.97675V11.7674C21.5922 12.2812 21.1643 12.6977 20.6365 12.6977C20.1087 12.6977 19.6808 12.2812 19.6808 11.7674V8.97675C19.6808 7.94924 18.825 7.11629 17.7694 7.11629H5.02168L6.93027 8.74179C7.32749 9.0801 7.36774 9.66779 7.02017 10.0544C6.6726 10.4411 6.06882 10.4802 5.6716 10.1419L2.67077 7.5862C1.80046 6.84497 1.80046 5.52714 2.67077 4.78591L5.6716 2.23017C6.06882 1.89187 6.6726 1.93104 7.02017 2.31768Z" fill="#CDCDCD"/>
<path fill-rule="evenodd" clip-rule="evenodd" d="M16.572 21.6823C16.2244 21.2957 16.2647 20.708 16.6619 20.3697L18.5705 18.7442H5.82282C3.71154 18.7442 2.00001 17.0783 2.00001 15.0233V12.2326C2.00001 11.7188 2.42789 11.3023 2.95571 11.3023C3.48353 11.3023 3.91141 11.7188 3.91141 12.2326V15.0233C3.91141 16.0508 4.76718 16.8837 5.82282 16.8837H18.5705L16.6619 15.2582C16.2647 14.9199 16.2244 14.3322 16.572 13.9456C16.9196 13.5589 17.5234 13.5198 17.9206 13.8581L20.9214 16.4138C21.7917 17.155 21.7917 18.4729 20.9214 19.2141L17.9206 21.7698C17.5234 22.1081 16.9196 22.069 16.572 21.6823Z" fill="#CDCDCD"/>
</svg>
