<svg width="28" height="27" viewBox="0 0 28 27" fill="none" xmlns="http://www.w3.org/2000/svg">
<path d="M24.8889 0H3.11111C2.28599 0 1.49467 0.327777 0.911223 0.911223C0.327777 1.49467 0 2.28599 0 3.11111V18.6667C0 19.4918 0.327777 20.2831 0.911223 20.8666C1.49467 21.45 2.28599 21.7778 3.11111 21.7778H8.07022C9.62578 21.7778 10.8889 23.0393 10.8889 24.5964C10.8889 25.8533 12.4071 26.4818 13.2953 25.5936L16.1996 22.6893C16.7829 22.1058 17.5741 21.778 18.3991 21.7778H24.8889C25.714 21.7778 26.5053 21.45 27.0888 20.8666C27.6722 20.2831 28 19.4918 28 18.6667V3.11111C28 2.28599 27.6722 1.49467 27.0888 0.911223C26.5053 0.327777 25.714 0 24.8889 0V0Z" fill="#005DCB"/>
<path d="M14.75 7.175L14.5953 11.9141H13.4703L13.3109 7.175H14.75ZM13.2734 13.3812C13.2734 13.1812 13.3422 13.0156 13.4797 12.8844C13.6203 12.75 13.8047 12.6828 14.0328 12.6828C14.2641 12.6828 14.4484 12.75 14.5859 12.8844C14.7234 13.0156 14.7922 13.1812 14.7922 13.3812C14.7922 13.575 14.7234 13.7391 14.5859 13.8734C14.4484 14.0078 14.2641 14.075 14.0328 14.075C13.8047 14.075 13.6203 14.0078 13.4797 13.8734C13.3422 13.7391 13.2734 13.575 13.2734 13.3812Z" fill="white"/>
</svg>
