<svg width="24" height="24" viewBox="0 0 24 24" fill="none" xmlns="http://www.w3.org/2000/svg">
<path fill-rule="evenodd" clip-rule="evenodd" d="M16.3248 14.8987L21.7048 20.2787C21.8939 20.468 22 20.7246 22 20.9921C21.9999 21.2596 21.8935 21.5161 21.7043 21.7052C21.515 21.8943 21.2584 22.0005 20.9909 22.0004C20.7234 22.0003 20.4669 21.894 20.2778 21.7047L14.8978 16.3247C13.2895 17.5704 11.267 18.1566 9.24189 17.9641C7.21674 17.7716 5.341 16.8148 3.99625 15.2884C2.6515 13.7619 1.93876 11.7806 2.00302 9.74729C2.06728 7.71402 2.90372 5.7816 4.34217 4.34315C5.78063 2.9047 7.71305 2.06826 9.74631 2.004C11.7796 1.93973 13.761 2.65248 15.2874 3.99723C16.8138 5.34198 17.7706 7.21772 17.9631 9.24287C18.1556 11.268 17.5694 13.2905 16.3238 14.8987H16.3248ZM9.99977 15.9997C11.5911 15.9997 13.1172 15.3676 14.2424 14.2424C15.3676 13.1172 15.9998 11.591 15.9998 9.99974C15.9998 8.40845 15.3676 6.88232 14.2424 5.7571C13.1172 4.63189 11.5911 3.99974 9.99977 3.99974C8.40847 3.99974 6.88235 4.63189 5.75713 5.7571C4.63191 6.88232 3.99977 8.40845 3.99977 9.99974C3.99977 11.591 4.63191 13.1172 5.75713 14.2424C6.88235 15.3676 8.40847 15.9997 9.99977 15.9997Z" fill="black"/>
</svg>
