<svg width="24" height="24" viewBox="0 0 24 24" fill="none" xmlns="http://www.w3.org/2000/svg">
<path fill-rule="evenodd" clip-rule="evenodd" d="M15.6245 2.27675C15.9873 1.90775 16.5754 1.90775 16.9381 2.27675L21.389 6.80431C21.7517 7.17331 21.7517 7.77157 21.389 8.14057L8.0365 21.7233C7.67375 22.0923 7.08563 22.0923 6.72288 21.7233L2.27206 17.1957C1.90931 16.8267 1.90931 16.2284 2.27206 15.8594L15.6245 2.27675ZM16.2813 4.28115L4.24248 16.5276L7.37969 19.7189L19.4185 7.47244L16.2813 4.28115Z" fill="#CDCDCD"/>
<path fill-rule="evenodd" clip-rule="evenodd" d="M6.91639 11.5287C7.27914 11.1597 7.86726 11.1597 8.23001 11.5287L10.0103 13.3397C10.3731 13.7087 10.3731 14.307 10.0103 14.676C9.64759 15.045 9.05947 15.045 8.69672 14.676L6.91639 12.865C6.55365 12.496 6.55365 11.8977 6.91639 11.5287Z" fill="#CDCDCD"/>
<path fill-rule="evenodd" clip-rule="evenodd" d="M9.14179 9.26494C9.50454 8.89594 10.0927 8.89594 10.4554 9.26494L13.1259 11.9815C13.4886 12.3505 13.4886 12.9487 13.1259 13.3177C12.7632 13.6867 12.175 13.6867 11.8123 13.3177L9.14179 10.6012C8.77905 10.2322 8.77905 9.63394 9.14179 9.26494Z" fill="#CDCDCD"/>
<path fill-rule="evenodd" clip-rule="evenodd" d="M11.3674 7.00116C11.7301 6.63216 12.3182 6.63216 12.681 7.00116L14.4613 8.81218C14.824 9.18118 14.824 9.77945 14.4613 10.1484C14.0986 10.5174 13.5104 10.5174 13.1477 10.1484L11.3674 8.33743C11.0046 7.96843 11.0046 7.37016 11.3674 7.00116Z" fill="#CDCDCD"/>
</svg>
