<svg width="24" height="24" viewBox="0 0 24 24" fill="none" xmlns="http://www.w3.org/2000/svg">
<path fill-rule="evenodd" clip-rule="evenodd" d="M9.10807 10.4293C9.91773 9.60927 11.2305 9.60927 12.0401 10.4293L13.4251 11.8319C14.2347 12.6519 14.2347 13.9813 13.4251 14.8013L6.92425 21.385C6.11459 22.205 4.80187 22.205 3.9922 21.385L2.60725 19.9824C1.79759 19.1624 1.79758 17.833 2.60725 17.013L9.10807 10.4293ZM10.7074 11.779C10.6338 11.7045 10.5144 11.7045 10.4408 11.779L3.94 18.3627C3.86639 18.4373 3.86639 18.5581 3.94 18.6327L5.32495 20.0353C5.39856 20.1098 5.5179 20.1098 5.5915 20.0353L12.0923 13.4516C12.1659 13.377 12.1659 13.2562 12.0923 13.1816L10.7074 11.779Z" fill="#CDCDCD"/>
<path fill-rule="evenodd" clip-rule="evenodd" d="M10.7604 16.1502L7.77617 13.1279L9.10892 11.7782L12.0932 14.8005L10.7604 16.1502Z" fill="#CDCDCD"/>
<path fill-rule="evenodd" clip-rule="evenodd" d="M21.046 2.27954C21.414 2.65226 21.414 3.25656 21.046 3.62928L14.2248 10.5374C13.8568 10.9101 13.2601 10.9101 12.8921 10.5374C12.524 10.1647 12.524 9.56039 12.8921 9.18766L19.7132 2.27954C20.0812 1.90682 20.6779 1.90682 21.046 2.27954Z" fill="#CDCDCD"/>
<path fill-rule="evenodd" clip-rule="evenodd" d="M15.45 2.27954C15.8181 1.90682 16.4148 1.90682 16.7828 2.27954L21.046 6.59712C21.414 6.96984 21.414 7.57414 21.046 7.94686C20.678 8.31958 20.0813 8.31958 19.7133 7.94686L15.45 3.62928C15.082 3.25656 15.082 2.65226 15.45 2.27954Z" fill="#CDCDCD"/>
</svg>
