<svg width="23" height="23" viewBox="0 0 23 23" fill="none" xmlns="http://www.w3.org/2000/svg">
<path d="M11.667 21.333C12.9805 21.3347 14.2813 21.0768 15.4948 20.5742C16.7083 20.0715 17.8105 19.334 18.738 18.404C19.668 17.4765 20.4055 16.3743 20.9082 15.1608C21.4108 13.9473 21.6687 12.6465 21.667 11.333C21.6687 10.0196 21.4108 8.71871 20.9081 7.50523C20.4055 6.29175 19.668 5.18957 18.738 4.26202C17.8105 3.33203 16.7083 2.59452 15.4948 2.09186C14.2813 1.5892 12.9805 1.33131 11.667 1.33302C10.3535 1.33134 9.05269 1.58924 7.83921 2.0919C6.62574 2.59455 5.52355 3.33205 4.596 4.26202C3.66604 5.18957 2.92854 6.29175 2.42588 7.50523C1.92323 8.71871 1.66533 10.0196 1.667 11.333C1.6653 12.6465 1.92319 13.9473 2.42584 15.1608C2.9285 16.3743 3.66601 17.4765 4.596 18.404C5.52355 19.334 6.62574 20.0715 7.83921 20.5741C9.05269 21.0768 10.3535 21.3347 11.667 21.333V21.333Z" stroke="#A1A1A1" stroke-width="2" stroke-linejoin="round"/>
<path d="M11.667 13.6455V11.6455C12.2603 11.6455 12.8404 11.4696 13.3337 11.1399C13.8271 10.8103 14.2116 10.3417 14.4386 9.79356C14.6657 9.24538 14.7251 8.64218 14.6093 8.06024C14.4936 7.4783 14.2079 6.94375 13.7883 6.52419C13.3688 6.10463 12.8342 5.81891 12.2523 5.70315C11.6703 5.5874 11.0671 5.64681 10.5189 5.87387C9.97076 6.10093 9.50223 6.48545 9.17258 6.9788C8.84294 7.47215 8.66699 8.05217 8.66699 8.64551" stroke="#A1A1A1" stroke-width="2" stroke-linecap="round" stroke-linejoin="round"/>
<path fill-rule="evenodd" clip-rule="evenodd" d="M11.667 18.1455C11.9985 18.1455 12.3165 18.0138 12.5509 17.7794C12.7853 17.545 12.917 17.227 12.917 16.8955C12.917 16.564 12.7853 16.246 12.5509 16.0116C12.3165 15.7772 11.9985 15.6455 11.667 15.6455C11.3355 15.6455 11.0175 15.7772 10.7831 16.0116C10.5487 16.246 10.417 16.564 10.417 16.8955C10.417 17.227 10.5487 17.545 10.7831 17.7794C11.0175 18.0138 11.3355 18.1455 11.667 18.1455V18.1455Z" fill="#A1A1A1"/>
</svg>
