<svg width="24" height="24" viewBox="0 0 24 24" fill="none" xmlns="http://www.w3.org/2000/svg">
<path d="M17.9847 8.30929L6.65841 18.8633L3.53266 19.6012C3.97394 20.2533 4.10265 20.5966 4.08426 20.7682L5.0036 17.3188L16.3115 6.74764C16.5137 6.57603 16.6241 6.33577 16.6241 6.0612C16.6241 5.5292 16.146 5.08302 15.576 5.08302C15.2818 5.08302 15.0244 5.18599 14.8405 5.37476L3.09137 16.3235L2.02494 20.3563C1.85946 21.1629 2.53977 21.7978 3.40395 21.6434L7.72485 20.648L19.4556 9.68217C19.6579 9.51056 19.7682 9.2703 19.7682 8.99573C19.7682 8.46374 19.2901 8.01755 18.7201 8.01755C18.426 8.01755 18.1685 8.12052 17.9847 8.30929ZM19.4556 9.68217L21.0185 8.22348C22.3056 7.02221 22.3423 5.10018 21.0369 3.89891C19.7498 2.68048 17.6905 2.7148 16.4034 3.91607L14.8405 5.37476C14.6383 5.54637 14.528 5.78662 14.528 6.0612C14.528 6.59319 15.006 7.03937 15.576 7.03937C15.8702 7.03937 16.1276 6.93641 16.3115 6.74764L17.8744 5.28895C18.4627 4.75696 18.996 4.7398 19.5659 5.27179C20.1359 5.80378 20.1175 6.30145 19.5476 6.8506L17.9847 8.30929C17.7824 8.4809 17.6721 8.72115 17.6721 8.99573C17.6721 9.52772 18.1502 9.97391 18.7201 9.97391C19.0143 9.97391 19.2718 9.87094 19.4556 9.68217ZM19.4556 8.30929L16.3115 5.37476C16.1276 5.18599 15.8702 5.08302 15.576 5.08302C15.006 5.08302 14.528 5.5292 14.528 6.0612C14.528 6.33577 14.6383 6.57603 14.8405 6.74764L17.9847 9.68217C18.1685 9.87094 18.426 9.97391 18.7201 9.97391C19.2901 9.97391 19.7682 9.52772 19.7682 8.99573C19.7682 8.72115 19.6579 8.4809 19.4556 8.30929Z" fill="#CDCDCD"/>
</svg>
