<svg width="36" height="36" viewBox="0 0 36 36" fill="none" xmlns="http://www.w3.org/2000/svg">
<g clip-path="url(#clip0_72172_16574)">
<path d="M31.26 15.6696C31.26 15.4929 31.1154 15.3482 30.9386 15.3482H28.5279C28.3511 15.3482 28.2065 15.4929 28.2065 15.6696C28.2065 21.3067 23.6382 25.875 18.0011 25.875C12.3641 25.875 7.79576 21.3067 7.79576 15.6696C7.79576 15.4929 7.65112 15.3482 7.47433 15.3482H5.06362C4.88683 15.3482 4.74219 15.4929 4.74219 15.6696C4.74219 22.4478 9.8288 28.0406 16.394 28.8321V32.9464H10.556C10.0056 32.9464 9.56362 33.521 9.56362 34.2321V35.6786C9.56362 35.8554 9.67612 36 9.81272 36H26.1895C26.3261 36 26.4386 35.8554 26.4386 35.6786V34.2321C26.4386 33.521 25.9967 32.9464 25.4462 32.9464H19.4475V28.8522C26.0891 28.129 31.26 22.504 31.26 15.6696ZM18.0011 22.5C21.7739 22.5 24.8315 19.4786 24.8315 15.75V6.75C24.8315 3.02143 21.7739 0 18.0011 0C14.2283 0 11.1708 3.02143 11.1708 6.75V15.75C11.1708 19.4786 14.2283 22.5 18.0011 22.5ZM14.2243 6.75C14.2243 4.71696 15.9078 3.05357 18.0011 3.05357C20.0944 3.05357 21.7779 4.71696 21.7779 6.75V15.75C21.7779 17.783 20.0944 19.4464 18.0011 19.4464C15.9078 19.4464 14.2243 17.783 14.2243 15.75V6.75Z" fill="black" fill-opacity="0.85"/>
</g>
<defs>
<clipPath id="clip0_72172_16574">
<rect width="36" height="36" fill="white"/>
</clipPath>
</defs>
</svg>
