<svg width="24" height="24" viewBox="0 0 24 24" fill="none" xmlns="http://www.w3.org/2000/svg">
<path fill-rule="evenodd" clip-rule="evenodd" d="M2 3.8552C2 2.8306 2.8306 2 3.8552 2H16.8451C17.5315 2 18.1899 2.27269 18.6753 2.75808L21.2419 5.32475C21.7273 5.81014 22 6.46846 22 7.15491V19.4118C22 20.8412 20.8412 22 19.4118 22H4.58824C3.15879 22 2 20.8412 2 19.4118V3.8552ZM4.35294 4.35294V19.4118C4.35294 19.5417 4.45829 19.6471 4.58824 19.6471H19.4118C19.5417 19.6471 19.6471 19.5417 19.6471 19.4118V7.15491C19.6471 7.0925 19.6223 7.03266 19.5781 6.98853L17.0115 4.42186C16.9673 4.37773 16.9075 4.35294 16.8451 4.35294H4.35294Z" fill="#CDCDCD"/>
<path fill-rule="evenodd" clip-rule="evenodd" d="M6.07257 5.8371V3.17647H8.42551V5.8371C8.42551 5.96705 8.53086 6.0724 8.66081 6.0724H14.6608C14.7908 6.0724 14.8961 5.96705 14.8961 5.8371V3.17647H17.249V5.8371C17.249 7.26654 16.0903 8.42534 14.6608 8.42534H8.66081C7.23136 8.42534 6.07257 7.26655 6.07257 5.8371Z" fill="#CDCDCD"/>
<path fill-rule="evenodd" clip-rule="evenodd" d="M7.98171 15.8914C7.85176 15.8914 7.74642 15.9968 7.74642 16.1267V20.8235H5.39348V16.1267C5.39348 14.6973 6.55227 13.5385 7.98171 13.5385H15.3392C16.7686 13.5385 17.9274 14.6973 17.9274 16.1267V20.1448H15.5745V16.1267C15.5745 15.9968 15.4691 15.8914 15.3392 15.8914H7.98171Z" fill="#CDCDCD"/>
</svg>
