<svg width="54" height="62" viewBox="0 0 54 62" fill="none" xmlns="http://www.w3.org/2000/svg">
<path fill-rule="evenodd" clip-rule="evenodd" d="M26.5848 4.31527L44.1365 14.7287C45.0948 15.2972 46.3336 14.983 46.9034 14.0268C47.4732 13.0706 47.1582 11.8345 46.1999 11.266L27.8073 0.353675C26.9543 -0.152427 25.8832 -0.112605 25.0703 0.455409L26.2282 2.10537L25.0703 0.455412L18.0364 5.37029H4.53386C2.13329 5.37029 1.08893 8.39944 2.98143 9.87311L7.21275 13.168L1.06818 17.4959L2.23233 19.1415L1.06818 17.4959C0.398351 17.9677 0 18.7348 0 19.5529V25.6181C0 26.4974 0.45966 27.3129 1.21261 27.7696L24.942 42.1632C25.8947 42.7411 27.1365 42.4389 27.7156 41.4883C28.2948 40.5377 27.9919 39.2986 27.0393 38.7208L4.03738 24.7685V20.3357L11.207 15.2858C12.5896 14.312 12.6384 12.2828 11.3042 11.2439L8.93486 9.39886H18.5138C19.0316 9.39886 19.537 9.23986 19.9612 8.94346L18.8032 7.29349L19.9612 8.94345L26.5848 4.31527ZM26.2844 20.5117C26.8635 19.5611 28.1053 19.2589 29.0579 19.8368L52.7874 34.2303C53.5403 34.6871 54 35.5026 54 36.3819V42.4471C54 43.2652 53.6016 44.0323 52.9318 44.5041L46.7872 48.832L51.0186 52.1269C52.9111 53.6006 51.8667 56.6297 49.4661 56.6297H35.9636L28.9297 61.5446C28.1168 62.1126 27.0457 62.1524 26.1927 61.6463L7.80007 50.734C6.84178 50.1655 6.52684 48.9294 7.09664 47.9732C7.66643 47.017 8.90519 46.7028 9.86348 47.2713L27.4152 57.6847L34.0388 53.0565L35.1175 54.5935L34.0388 53.0565C34.463 52.7601 34.9684 52.6011 35.4862 52.6011H45.0651L42.6958 50.7561C41.3615 49.7172 41.4104 47.688 42.793 46.7142L49.9626 41.6643V37.2315L26.9607 23.2792C26.0081 22.7014 25.7052 21.4623 26.2844 20.5117ZM28.2561 58.1836L28.2535 58.1821L28.2561 58.1836ZM45.1213 50.0054L45.1239 50.0036C45.123 50.0042 45.1222 50.0048 45.1213 50.0054Z" fill="#5FD2FF"/>
</svg>
